<svg width="24" height="24" viewBox="0 0 24 24" fill="none" xmlns="http://www.w3.org/2000/svg">
<path d="M0 0H24V24H0V0Z" fill="white"/>
<path d="M5.86161 9.92634C5.86161 9.83705 5.90625 9.73661 5.97321 9.66964L6.53125 9.11161C6.59821 9.04464 6.69866 9 6.78795 9C6.87723 9 6.97768 9.04464 7.04464 9.11161L11.4308 13.4978L15.817 9.11161C15.8839 9.04464 15.9844 9 16.0737 9C16.1741 9 16.2634 9.04464 16.3304 9.11161L16.8884 9.66964C16.9554 9.73661 17 9.83705 17 9.92634C17 10.0156 16.9554 10.1161 16.8884 10.183L11.6875 15.3839C11.6205 15.4509 11.5201 15.4955 11.4308 15.4955C11.3415 15.4955 11.2411 15.4509 11.1741 15.3839L5.97321 10.183C5.90625 10.1161 5.86161 10.0156 5.86161 9.92634Z" fill="#2E3131"/>
</svg>
