<svg width="297" height="600" viewBox="0 0 297 600" fill="none" xmlns="http://www.w3.org/2000/svg">
<g opacity="0.1" filter="url(#filter0_d)">
<mask id="mask0" mask-type="alpha" maskUnits="userSpaceOnUse" x="4" y="0" width="600" height="592">
<path fill-rule="evenodd" clip-rule="evenodd" d="M4 0H604V591.966H4V0Z" fill="white"/>
</mask>
<g mask="url(#mask0)">
<path fill-rule="evenodd" clip-rule="evenodd" d="M384.529 105.875C392.748 124.544 397.248 143.435 397.93 161.858H455.529C453.973 128.491 441.387 97.7672 421.173 73.3207C412.197 86.4261 399.769 97.3651 384.529 105.875ZM320.299 17.8625C346.22 43.5563 365.636 68.7496 378.555 93.4751C391.723 85.991 403.469 76.2994 413.402 64.4987C389.377 39.2644 356.784 22.2692 320.299 17.8625ZM365.02 100.401C353.274 76.9232 335.464 52.5587 311.764 27.1193V114.787C331.113 112.153 349.015 107.459 365.02 100.401ZM382.714 161.858C381.724 145.733 377.723 129.329 370.702 112.957C353.724 120.261 333.859 125.48 311.764 129.329V161.858H382.714ZM204.37 400.218C205.983 374.499 214.036 348.42 228.436 321.913C213.479 314.963 199.728 305.821 187.491 295.35C160.846 323.029 143.943 359.752 141.88 400.218H204.37ZM218.915 477.143C210.022 456.702 205.106 436.383 204.257 416.064H141.759C143.473 452.598 157.174 485.965 179.11 512.562C188.793 498.389 202.194 486.646 218.915 477.143ZM288.609 572.886C260.584 544.804 239.355 517.403 225.379 490.438C210.946 498.833 198.368 509.082 187.612 522.13C213.691 549.474 248.979 567.733 288.609 572.886ZM239.977 482.986C252.854 508.516 272.07 535.055 298.083 562.456V467.452C276.936 470.308 257.471 475.338 239.977 482.986ZM220.839 416.064C221.962 433.708 226.304 451.605 233.883 469.75C252.334 461.486 273.879 455.832 298.078 451.671V416.064H220.839ZM241.898 327.387C228.796 351.768 221.775 375.927 220.718 400.218H298.082V337.514C278.276 337.226 259.442 333.69 241.898 327.387ZM367.957 234.591C377.066 215.011 382.04 195.972 382.856 176.523H311.764V225.301C331.363 225.424 350.313 228.781 367.957 234.591ZM422.551 262.796C441.809 238.907 453.813 209.176 455.46 176.523H397.77C396.638 197.4 390.79 217.866 380.633 239.153C395.707 245.243 409.765 253.26 422.551 262.796ZM410.447 276.213C398.743 267.481 385.849 260.563 372.098 255.09C359.82 276.122 343.049 297.557 322.078 319.772C356.326 315.078 387.064 299.453 410.447 276.213ZM312.136 243.257V312.222C332.151 291.132 348.023 270.715 359.627 250.495C344.579 245.956 328.673 243.445 312.136 243.257ZM250.163 312.878C265.212 317.786 281.375 320.707 298.079 321.265V252.39C278.488 272.988 262.441 292.904 250.163 312.878ZM199.55 283.762C210.781 293.364 223.317 301.504 236.935 307.528C249.829 286.996 266.424 266.185 286.814 244.84C253.705 249.124 223.658 263.263 199.55 283.762ZM298.678 225.547V16.591H298.47V-0.00210571H300.933H302.347H304.002V0.219464C396.997 1.89354 472.373 76.9236 472.373 168.817C472.373 208.183 458.522 244.586 435.28 273.513C472.655 307.069 496.089 355.281 496.089 408.671C496.089 464.219 470.8 514.179 430.787 547.849C524.464 501.812 588.976 406.438 588.976 296.786C588.976 258.2 580.965 221.264 566.507 187.766C554.37 159.315 516.054 158.814 497.478 178.854C498.219 120.261 469.727 66.2062 410.448 20.7187C523.358 63.096 603.999 171.05 603.999 296.786C603.999 440.363 499.192 560.339 360.927 586.624C395.425 562.267 423.525 536.295 443.523 508.648C465.036 480.869 477.921 446.075 477.921 408.671C477.921 360.5 456.85 317.228 423.276 286.84C394.601 315.8 355.47 334.494 312.138 337.227V574.011H312.537V591.966H309.734H306.831H304.002C203.962 588.856 123.487 507.712 123.487 408.671C123.487 359.942 142.836 315.669 174.455 282.712C146.538 252.702 129.393 212.721 129.393 168.817C129.393 115.132 155.114 67.1663 195.002 36.1958C91.7674 78.4745 19.0038 178.854 19.0038 295.35C19.0038 333.813 26.9731 370.766 41.431 404.321C53.726 432.715 92.0668 433.462 110.509 413.209C109.836 472.048 138.236 525.733 197.556 571.459C84.6216 528.835 3.99683 421.095 3.99683 295.35C3.99683 149.369 112.456 27.7679 254.323 4.15848C163.383 65.6481 129.484 136.69 152.269 215.011H153.451C160.222 236.076 171.71 255.213 186.467 271.371C216.797 245.029 255.812 228.034 298.678 225.547Z" fill="white"/>
</g>
</g>
<defs>
<filter id="filter0_d" x="0" y="0" width="607.999" height="599.966" filterUnits="userSpaceOnUse" color-interpolation-filters="sRGB">
<feFlood flood-opacity="0" result="BackgroundImageFix"/>
<feColorMatrix in="SourceAlpha" type="matrix" values="0 0 0 0 0 0 0 0 0 0 0 0 0 0 0 0 0 0 127 0"/>
<feOffset dy="4"/>
<feGaussianBlur stdDeviation="2"/>
<feColorMatrix type="matrix" values="0 0 0 0 0 0 0 0 0 0 0 0 0 0 0 0 0 0 0.25 0"/>
<feBlend mode="normal" in2="BackgroundImageFix" result="effect1_dropShadow"/>
<feBlend mode="normal" in="SourceGraphic" in2="effect1_dropShadow" result="shape"/>
</filter>
</defs>
</svg>
