<svg width="14" height="14" viewBox="0 0 14 14" fill="none" xmlns="http://www.w3.org/2000/svg">
<path fill-rule="evenodd" clip-rule="evenodd" d="M2.80078 7.87566H3.73402V7.00002H2.80078V7.87566ZM1.86841 8.75024H4.66815V6.12576H1.86841V8.75024ZM2.80078 11.3761H3.73402V10.5H2.80078V11.3761ZM1.86841 12.2502H4.66815V9.62503H1.86841V12.2502ZM6.52663 7.87566H7.45987V7.00002H6.52663V7.87566ZM5.59426 8.75024H8.39403V6.12576H5.59426V8.75024ZM6.52663 11.3761H7.45987V10.5H6.52663V11.3761ZM5.59426 12.2502H8.39403V9.62503H5.59426V12.2502ZM10.2708 7.87566H11.204V7.00002H10.2708V7.87566ZM9.33473 8.75024H12.1345V6.12576H9.33473V8.75024ZM10.2708 11.3761H11.204V10.5H10.2708V11.3761ZM9.33473 12.2502H12.1345V9.62503H9.33473V12.2502ZM13.0683 4.37575H0.936032V12.6879C0.936032 12.9296 1.14508 13.1254 1.40289 13.1254H12.6017C12.8595 13.1254 13.0683 12.9296 13.0683 12.6879V4.37575ZM13.0683 2.18771C13.0683 1.94578 12.8595 1.75 12.6017 1.75H10.2685V2.62542H9.33529V1.75H4.66904V2.62542H3.73579V1.75H1.40289C1.14508 1.75 0.936032 1.94578 0.936032 2.18771V3.50019H13.0683V2.18771ZM13.0655 14H0.933251C0.417863 14 0 13.6084 0 13.125V4.37537V3.50038V1.75019C0 1.26698 0.417863 0.875205 0.933251 0.875205H3.733V0H4.66625V0.875205H9.33251V0H10.2658V0.875205H13.5321C14.0475 0.875205 13.9988 1.26698 13.9988 1.75019V3.50038V4.37537V13.125C13.9988 13.6084 13.5809 14 13.0655 14Z" fill="#BDC3C7"/>
</svg>
