<svg width="16" height="11" viewBox="0 0 16 11" fill="none" xmlns="http://www.w3.org/2000/svg">
<path d="M8.01391 2.29167C7.76348 2.32031 7.37391 2.3776 7.12348 2.4349C7.23478 2.63542 7.31826 3.00781 7.34609 3.20833C7.34609 4.09635 6.62261 4.8125 5.78783 4.8125C5.56522 4.8125 5.20348 4.72656 5.03652 4.61198C4.95304 4.86979 4.89739 5.24219 4.89739 5.5C4.89739 7.27604 6.2887 8.70833 8.01391 8.70833C9.73913 8.70833 11.1304 7.27604 11.1304 5.5C11.1304 3.7526 9.73913 2.29167 8.01391 2.29167ZM15.9165 5.09896C14.4139 2.0625 11.4087 0 8.01391 0C4.5913 0 1.58609 2.0625 0.0834783 5.09896C0.0278261 5.21354 0 5.38542 0 5.52865C0 5.64323 0.0278261 5.8151 0.0834783 5.92969C1.58609 8.96615 4.5913 11 8.01391 11C11.4087 11 14.4139 8.96615 15.9165 5.92969C15.9722 5.8151 16 5.64323 16 5.5C16 5.38542 15.9722 5.21354 15.9165 5.09896ZM8.01391 9.625C5.25913 9.625 2.72696 8.04948 1.3913 5.5C2.72696 2.95052 5.25913 1.375 8.01391 1.375C10.7409 1.375 13.273 2.95052 14.6087 5.5C13.273 8.04948 10.7409 9.625 8.01391 9.625Z" fill="#BDC3C7"/>
</svg>
