<svg width="16" height="12" viewBox="0 0 16 12" fill="none" xmlns="http://www.w3.org/2000/svg">
<path d="M15.8502 11.0391L0.923557 0.09375C0.848674 0.046875 0.74883 0 0.673947 0C0.549142 0 0.424337 0.0703125 0.349454 0.140625L0.099844 0.445312C0.049922 0.492188 0 0.609375 0 0.679688C0 0.773438 0.074883 0.914062 0.174727 0.960938L15.1014 11.9297C15.1513 11.9766 15.2512 12 15.351 12C15.4509 12 15.5757 11.9531 15.6505 11.8594L15.9002 11.5781C15.9501 11.5312 16 11.4141 16 11.3438C16 11.25 15.9251 11.1094 15.8502 11.0391ZM7.41342 3.44531L10.7832 5.90625C10.7332 4.5 9.51014 3.375 8.01248 3.375C7.83775 3.39844 7.58814 3.42188 7.41342 3.44531ZM8.58658 8.57812L5.21685 6.11719C5.26677 7.52344 6.48986 8.625 8.01248 8.625C8.16225 8.625 8.41186 8.60156 8.58658 8.57812ZM8.01248 2.625C10.4587 2.625 12.7301 3.91406 13.9282 6C13.6786 6.44531 13.2044 7.07812 12.83 7.42969L13.7785 8.10938C14.2278 7.66406 14.8019 6.89062 15.1014 6.35156C15.1513 6.25781 15.2012 6.11719 15.2012 6C15.2012 5.90625 15.1513 5.76562 15.1014 5.67188C13.7535 3.1875 11.0577 1.5 8.01248 1.5C7.08892 1.5 6.21529 1.66406 5.39158 1.94531L6.53978 2.8125C7.01404 2.69531 7.51326 2.625 8.01248 2.625ZM8.01248 9.375C5.54134 9.375 3.26989 8.08594 2.07176 6C2.32137 5.57812 2.79563 4.94531 3.17005 4.59375L2.22153 3.91406C1.77223 4.35938 1.19813 5.13281 0.898596 5.67188C0.848674 5.76562 0.823713 5.90625 0.823713 6.02344C0.823713 6.11719 0.848674 6.25781 0.898596 6.35156C2.24649 8.83594 4.94228 10.5 8.01248 10.5C8.91108 10.5 9.78471 10.3359 10.6084 10.0781L9.46022 9.21094C8.98596 9.32812 8.48674 9.375 8.01248 9.375Z" fill="#BDC3C7"/>
</svg>
