<svg width="71" height="74" viewBox="0 0 71 74" fill="none" xmlns="http://www.w3.org/2000/svg">
    <path d="M59.5726 52.5909C59.5726 52.5909 59.6742 52.3882 59.9764 52.0804C60.2787 51.6725 60.4818 51.3673 60.7841 50.6542C61.4901 49.4306 62.3968 47.599 63.2044 45.2544C63.6082 44.1335 63.9105 42.8098 64.2127 41.3836C64.5149 39.9573 64.7181 38.4285 64.7181 36.9022C64.7181 36.0865 64.8197 35.0681 64.7181 34.355C64.7181 33.5392 64.7181 32.8261 64.5175 31.9104C64.4159 31.0946 64.3168 30.2815 64.1137 29.3631C63.913 28.5474 63.8114 27.7342 63.5092 26.8159L63.207 25.5923C63.1054 25.1844 62.9047 24.7766 62.8032 24.3687L62.3993 23.1451L61.8939 22.0241C61.5917 21.2084 61.1879 20.4953 60.7841 19.7822C60.3803 19.069 59.9764 18.3559 59.4736 17.6428C59.0698 16.9297 58.5669 16.3192 58.0615 15.7061C57.5561 15.0956 57.0532 14.4825 56.5478 13.872C56.0424 13.2615 55.5395 12.751 55.0341 12.2431C54.7319 12.0404 54.5287 11.7326 54.2265 11.53C53.9243 11.3273 53.7211 11.1221 53.4189 10.9195C52.4106 10.0037 51.4023 9.29056 50.4931 8.67748C49.5839 8.06441 48.7788 7.5565 48.0727 7.14863C46.6607 6.43551 45.853 6.02765 45.853 6.02765C45.853 6.02765 46.7597 6.33291 48.1718 6.84338C48.8778 7.14863 49.7845 7.5565 50.7953 7.96436C51.8036 8.47483 52.9135 9.08535 54.1249 9.79847C54.4271 10.0011 54.7294 10.2063 55.0316 10.409C55.3338 10.6116 55.636 10.8168 55.9383 11.0195C56.5427 11.4274 57.1497 11.9353 57.7542 12.4457C58.3586 12.9562 58.9656 13.4641 59.5701 14.0746C60.1745 14.6851 60.7815 15.2982 61.386 15.9087C61.9904 16.6219 62.5974 17.2324 63.1003 18.0481C63.6057 18.7612 64.2102 19.577 64.713 20.2901L65.5207 21.5137L66.2267 22.7373C66.4273 23.1451 66.7321 23.553 66.9327 24.0609L67.5372 25.3845C67.941 26.3003 68.2432 27.2186 68.5455 28.1344C68.8477 29.0502 69.1499 29.9685 69.3531 30.8843C69.6553 31.8001 69.7569 32.821 69.9576 33.7368C70.1582 34.7551 70.1582 35.5709 70.2598 36.3866C70.4604 38.3233 70.4604 40.0548 70.3614 41.7863C70.2598 43.5178 70.0592 45.1493 69.7569 46.5755C69.1525 49.5306 68.3448 51.9752 67.6388 53.6041C67.3366 54.4198 66.9327 55.133 66.8312 55.5408C66.6305 55.9487 66.5289 56.1513 66.5289 56.1513C65.6222 58.1881 63.1994 59.1064 61.1828 58.0881C59.1663 57.1723 58.257 54.7251 59.2653 52.6883C59.372 52.9962 59.471 52.7935 59.5726 52.5909Z" fill="#93D1FF" />
    <path d="M34.3583 8.27434C34.3583 8.27434 34.1577 8.27434 33.7539 8.27434C33.2485 8.27434 32.8472 8.27434 32.1411 8.17173C30.7291 8.17173 28.7125 8.27434 26.2922 8.6822C25.0807 8.88485 23.7702 9.29272 22.4597 9.70058C21.1492 10.1084 19.7371 10.719 18.4241 11.4321C17.718 11.8399 16.8114 12.2478 16.306 12.6557C15.7015 13.0635 14.9955 13.4714 14.2894 13.9793C13.5834 14.4898 12.9789 14.9977 12.3719 15.5082C11.7675 16.0186 11.0614 16.6291 10.556 17.2397L9.64934 18.1554C9.34711 18.4607 9.14394 18.7659 8.84171 19.1738L8.03407 20.1922L7.32803 21.2106C6.82263 21.9237 6.42135 22.6368 5.91594 23.3499C5.41054 24.063 5.10831 24.7762 4.7045 25.5919C4.30068 26.305 3.99845 27.1207 3.69623 27.8339C3.394 28.547 3.19082 29.3627 2.88859 30.0758C2.58637 30.789 2.48478 31.5021 2.28414 32.2152C2.18255 32.5205 2.0835 32.9283 1.98191 33.2336C1.88032 33.5388 1.88032 33.9467 1.78127 34.252C1.47905 35.5756 1.47905 36.7992 1.37746 37.9202C1.27587 39.0412 1.27587 39.9569 1.27587 40.7727C1.37746 42.4015 1.37746 43.3199 1.37746 43.3199C1.37746 43.3199 1.27587 42.5042 0.97364 40.8753C0.872051 40.0595 0.773002 39.1438 0.671413 38.0228C0.569824 36.9018 0.569824 35.5782 0.569824 34.252C0.569824 33.9467 0.569824 33.5388 0.569824 33.131C0.569824 32.7231 0.671413 32.4179 0.671413 32.01C0.773002 31.2969 0.773002 30.4811 0.97364 29.668C1.07523 28.8522 1.27587 28.0391 1.47905 27.2234C1.67968 26.4076 1.88286 25.5945 2.18509 24.6761C2.48732 23.8604 2.69049 22.9446 3.09177 22.1289C3.394 21.3132 3.79781 20.3974 4.30322 19.5817L4.90767 18.3581L5.61372 17.1345C5.91595 16.7266 6.11912 16.3188 6.42135 15.9109L7.22898 14.6873C7.73439 13.8716 8.44043 13.1584 9.04489 12.4453C9.64934 11.7322 10.3554 11.0191 11.0614 10.306C11.6659 9.59284 12.4735 8.98233 13.2811 8.36925C14.0888 7.65613 14.6932 7.24826 15.3993 6.74036C16.913 5.61937 18.4241 4.7036 19.9378 3.99048C21.4514 3.17475 22.9626 2.56424 24.3747 2.05377C27.1988 1.03539 29.7208 0.627525 31.4351 0.322268C32.3418 0.21966 33.1494 0.119618 33.4516 0.119618C33.8555 0.119618 34.0561 0.0170108 34.0561 0.0170108C36.2758 -0.185639 38.1908 1.44325 38.3939 3.78527C38.5946 6.12728 36.9819 7.96139 34.6631 8.1666C34.6605 8.27434 34.4599 8.27434 34.3583 8.27434Z" fill="#93D1FF" />
    <path d="M8.83898 52.3857C8.83898 52.3857 9.24279 53.2014 10.0504 54.6277C10.4542 55.4434 10.8581 56.0539 11.3609 56.767C11.6632 57.1749 11.8663 57.5828 12.2676 57.9906C12.6714 58.3985 12.9737 58.9064 13.3775 59.3143C13.5781 59.5169 13.7813 59.8247 13.9819 60.0274C14.1826 60.23 14.4873 60.4352 14.688 60.7405C15.1934 61.251 15.5946 61.6563 16.2016 62.1667C17.3115 63.0825 18.4214 64.1034 19.8334 64.8166C20.1357 65.0192 20.5395 65.2244 20.8417 65.4271C21.1439 65.6297 21.5478 65.835 21.9516 66.0376C22.6576 66.3429 23.3637 66.8533 24.1713 67.1586C24.9789 67.4638 25.685 67.7691 26.4901 68.0744C27.2977 68.277 28.1028 68.5848 28.9104 68.7875C30.5231 69.1953 32.24 69.5006 33.9543 69.6032C34.3581 69.6032 34.762 69.7058 35.2648 69.7058C35.6686 69.7058 36.0724 69.7058 36.4763 69.7058C37.2839 69.7058 38.1906 69.8084 38.9982 69.6032C39.8058 69.5006 40.6109 69.4006 41.4186 69.4006C42.2262 69.2979 42.9322 69.0953 43.7373 68.9927C44.1412 68.8901 44.4434 68.8901 44.8472 68.79C45.1494 68.6874 45.5532 68.5874 45.8555 68.4848C46.5615 68.2821 47.166 68.0769 47.872 67.8743C49.0835 67.3638 50.1908 66.8559 51.2016 66.448C52.2099 65.9376 53.0175 65.4297 53.7235 65.0218C55.034 64.2061 55.8417 63.5955 55.8417 63.5955C55.8417 63.5955 54.935 64.3087 53.7235 65.327C53.1191 65.8375 52.3114 66.448 51.4048 67.0585C50.4981 67.6691 49.3882 68.2821 48.1768 68.9953C47.5723 69.3005 46.8663 69.6058 46.2593 69.911C45.9571 70.1137 45.5532 70.2163 45.251 70.4215C44.8472 70.6241 44.545 70.7268 44.1412 70.8294C43.4351 71.1346 42.6275 71.3398 41.8224 71.6451C41.0148 71.8477 40.1081 72.053 39.3004 72.2556C38.4928 72.4583 37.5861 72.5609 36.6769 72.6635C36.1715 72.7661 35.7702 72.7661 35.2648 72.8661C34.7594 72.8661 34.3581 72.8661 33.8527 72.9687C31.9352 73.0713 30.0203 72.9687 28.1028 72.8661C27.0945 72.7635 26.1853 72.6635 25.177 72.4583C24.2703 72.2556 23.2595 71.9478 22.3529 71.7451C21.4462 71.5425 20.537 71.1346 19.6303 70.8294C19.2265 70.6267 18.7236 70.5241 18.3198 70.3189C17.916 70.1162 17.5121 69.911 17.1083 69.7084C15.394 68.9953 13.8803 67.9769 12.4682 67.1611C11.7622 66.6507 11.0562 66.1428 10.4517 65.7349C10.1495 65.5323 9.84725 65.2244 9.44343 65.0218C9.14121 64.7165 8.83898 64.5113 8.53675 64.2061C7.9323 63.6956 7.42689 63.1877 6.92403 62.7798C6.41862 62.372 6.01734 61.7614 5.51194 61.251C4.60526 60.3352 3.89921 59.4169 3.4954 58.8063C2.58872 57.4827 1.98172 56.7696 1.98172 56.7696C0.671224 54.9355 0.973451 52.3883 2.78935 51.0646C4.60526 49.741 7.1272 50.0462 8.4377 51.8804C8.63834 52.0804 8.73993 52.2831 8.83898 52.3857Z" fill="#93D1FF" />
</svg>