<svg width="30" height="30" viewBox="0 0 24 24" fill="none" xmlns="http://www.w3.org/2000/svg">
<rect width="30" height="30"/>
<path fill-rule="evenodd" clip-rule="evenodd" d="M16.6464 8.95899C16.8417 8.75071 17.1582 8.75071 17.3535 8.95899L19.8533 11.6257C20.0486 11.8339 20.0486 12.1716 19.8533 12.3799L17.3535 15.0466C17.1582 15.2549 16.8417 15.2549 16.6464 15.0466C16.4512 14.8383 16.4512 14.5006 16.6464 14.2923L18.7927 12.0028L16.6464 9.71324C16.4512 9.50496 16.4512 9.16727 16.6464 8.95899Z" fill="#849097"/>
<path fill-rule="evenodd" clip-rule="evenodd" d="M5.38472 4.00066C5.39301 4.00022 5.40131 4 5.40961 4H13.5911C13.5994 4 13.6077 4.00022 13.616 4.00066C14.4133 4.04306 15.0296 4.76139 15.0003 5.61081V8.8C15.0003 9.09455 14.7765 9.33333 14.5004 9.33333C14.2242 9.33333 14.0004 9.09455 14.0004 8.8V5.6C14.0004 5.59198 14.0006 5.58397 14.0009 5.57596C14.0121 5.31096 13.8232 5.08557 13.5764 5.06667H5.42431C5.17774 5.08556 4.98906 5.31083 5.00044 5.57557C5.00079 5.58371 5.00097 5.59185 5.00097 5.6V18.4C5.00097 18.408 5.0008 18.416 5.00046 18.4241C4.98925 18.6889 5.1779 18.9142 5.42451 18.9333H13.5764C13.8232 18.9144 14.0121 18.689 14.0009 18.424C14.0006 18.416 14.0004 18.408 14.0004 18.4V15.2C14.0004 14.9054 14.2242 14.6667 14.5004 14.6667C14.7765 14.6667 15.0003 14.9054 15.0003 15.2V18.3892C15.0296 19.2386 14.4133 19.9569 13.616 19.9993C13.6077 19.9998 13.5994 20 13.5911 20H5.40961C5.40119 20 5.39278 19.9998 5.38437 19.9993C4.58741 19.9564 3.97175 19.2382 4.00103 18.3892V5.61097C3.97129 4.76162 4.58737 4.04306 5.38472 4.00066Z" fill="#849097"/>
<path fill-rule="evenodd" clip-rule="evenodd" d="M8.50049 12.0028C8.50049 11.7083 8.72433 11.4695 9.00046 11.4695H19.4998C19.7759 11.4695 19.9997 11.7083 19.9997 12.0028C19.9997 12.2974 19.7759 12.5362 19.4998 12.5362H9.00046C8.72433 12.5362 8.50049 12.2974 8.50049 12.0028Z" fill="#849097"/>
</svg>
