<svg width="161" height="32" viewBox="0 0 161 32" fill="none" xmlns="http://www.w3.org/2000/svg">
<path fill-rule="evenodd" clip-rule="evenodd" d="M42.4466 24.8895V10.5042H37.4082V7.57208H50.8976V10.5042H45.8722V24.8895H42.4466ZM61.1788 24.8895V23.0132C60.1964 24.4593 58.8313 25.169 57.0881 25.169C54.3754 25.169 53.0104 23.5455 53.0104 20.2807V12.3406H56.2708V20.2497C56.2708 21.8466 56.9533 22.645 58.3183 22.645C59.8268 22.645 60.6832 21.7711 60.9049 20.0234C60.931 19.7706 60.9571 18.981 60.9571 17.637V12.3362H64.2045V24.8895H61.1788ZM70.7775 24.8895H67.5258V12.3362H70.5471V14.1282C71.3383 12.7487 72.2686 12.0567 73.3511 12.0567C74.0988 12.0567 74.8117 12.2696 75.4942 12.6821L74.49 15.5876C73.9162 15.2106 73.3989 15.0376 72.9337 15.0376C71.886 15.0376 71.2209 15.8316 70.934 17.4373C70.8427 17.9963 70.7862 19.1939 70.7862 21.0171V24.8895H70.7775ZM79.3198 16.1687L76.3724 15.632C76.9506 13.2455 78.7155 12.0567 81.6629 12.0567C84.2539 12.0567 85.8624 12.7088 86.484 13.9996C86.7535 14.5807 86.8796 15.5078 86.8753 16.772L86.8405 20.6045C86.8231 22.5208 87.0752 23.9447 87.5839 24.8895H84.3626C84.3104 24.7254 84.2322 24.4947 84.1322 24.1754L83.9322 23.5144C82.8497 24.6145 81.5847 25.169 80.1284 25.169C78.9546 25.169 77.9982 24.8629 77.2375 24.2242C76.4419 23.5455 76.0333 22.6361 76.0333 21.4606C76.0333 20.2097 76.5028 19.2649 77.4201 18.6217C78.0765 18.1781 79.1155 17.81 80.524 17.5349C82.1324 17.2022 83.1845 16.9272 83.6757 16.7143V16.3816C83.6757 15.6541 83.4714 15.1618 83.0671 14.9001C82.7454 14.7004 82.215 14.6073 81.4586 14.6073C80.3457 14.6029 79.6328 15.113 79.3198 16.1687ZM83.6757 18.8657C83.4497 18.95 82.7845 19.123 81.6716 19.3714C80.9413 19.5399 80.424 19.6996 80.1284 19.8549C79.5676 20.1476 79.2937 20.569 79.2937 21.1235C79.2937 21.6159 79.4632 22.0329 79.8154 22.3434C80.1631 22.6627 80.5935 22.8313 81.0935 22.8313C81.5934 22.8313 82.0803 22.6894 82.5454 22.4099C83.0454 22.0994 83.3714 21.7135 83.5149 21.2566C83.6235 20.915 83.6714 20.3206 83.6714 19.5266V18.8657H83.6757ZM101.191 24.8895H97.9389V18.4842C97.9389 17.5083 97.9259 16.8917 97.8911 16.6566C97.7172 15.2815 97.0608 14.6029 95.9218 14.6029C95.3306 14.6029 94.8089 14.7581 94.3438 15.1085C93.8743 15.4501 93.5787 15.907 93.4439 16.4792C93.3092 17.047 93.2396 17.9563 93.2396 19.2028V24.8851H89.9792V12.3317H93.0049V14.1859C94.0699 12.7576 95.4219 12.0523 97.0695 12.0523C99.004 12.0523 100.256 12.793 100.821 14.2569C101.065 14.9001 101.195 15.8538 101.195 17.0825V24.8895H101.191ZM104.964 7.57208H111.746C113.206 7.57208 114.237 7.63418 114.832 7.75839C115.884 7.98018 116.719 8.45481 117.358 9.18229C118.014 9.96299 118.349 10.8812 118.349 11.9547C118.349 12.7531 118.132 13.4983 117.693 14.1815C117.254 14.8513 116.684 15.3658 115.958 15.6808C116.945 15.9513 117.736 16.4615 118.314 17.2022C118.893 17.943 119.179 18.8346 119.179 19.8549C119.179 20.9594 118.871 21.9663 118.258 22.8801C117.601 23.8427 116.758 24.4371 115.741 24.6322C114.837 24.8052 113.172 24.8895 110.737 24.8895H104.964V7.57208ZM108.39 10.4509V14.452H112.085C114.041 14.452 115.015 13.7778 115.015 12.4204C115.015 11.2804 114.476 10.6417 113.406 10.5219C112.902 10.4864 111.889 10.4509 110.359 10.4509H108.39ZM108.39 17.3353V21.9708H111.563C112.72 21.9708 113.363 21.9619 113.498 21.9441C114.924 21.7711 115.645 21.0304 115.645 19.7085C115.645 18.4487 115.041 17.7168 113.845 17.4906C113.285 17.3841 112.393 17.3353 111.159 17.3353H108.39ZM124.496 16.1687L121.54 15.632C122.118 13.2455 123.888 12.0567 126.835 12.0567C129.426 12.0567 131.03 12.7088 131.652 13.9996C131.921 14.5807 132.052 15.5078 132.043 16.772L132.012 20.6045C131.991 22.5208 132.239 23.9447 132.752 24.8895H129.526C129.478 24.7254 129.395 24.4947 129.295 24.1754L129.1 23.5144C128.022 24.6145 126.748 25.169 125.292 25.169C124.122 25.169 123.166 24.8629 122.405 24.2242C121.614 23.5455 121.205 22.6361 121.205 21.4606C121.205 20.2097 121.666 19.2649 122.592 18.6217C123.248 18.1781 124.283 17.81 125.696 17.5349C127.304 17.2022 128.352 16.9272 128.848 16.7143V16.3816C128.848 15.6541 128.639 15.1618 128.235 14.9001C127.917 14.7004 127.383 14.6073 126.626 14.6073C125.509 14.6029 124.8 15.113 124.496 16.1687ZM128.848 18.8657C128.622 18.95 127.948 19.123 126.844 19.3714C126.113 19.5399 125.592 19.6996 125.292 19.8549C124.74 20.1476 124.461 20.569 124.461 21.1235C124.461 21.6159 124.631 22.0329 124.983 22.3434C125.335 22.6627 125.761 22.8313 126.265 22.8313C126.765 22.8313 127.248 22.6894 127.713 22.4099C128.222 22.0994 128.543 21.7135 128.683 21.2566C128.791 20.915 128.848 20.3206 128.848 19.5266V18.8657ZM146.363 24.8895H143.111V18.4842C143.111 17.5083 143.094 16.8917 143.063 16.6566C142.894 15.2815 142.237 14.6029 141.094 14.6029C140.503 14.6029 139.981 14.7581 139.516 15.1085C139.051 15.4501 138.746 15.907 138.616 16.4792C138.481 17.047 138.403 17.9563 138.403 19.2028V24.8851H135.151V12.3317H138.177V14.1859C139.242 12.7576 140.59 12.0523 142.242 12.0523C144.18 12.0523 145.432 12.793 145.993 14.2569C146.241 14.9001 146.367 15.8538 146.367 17.0825V24.8895H146.363ZM149.623 24.8895V7.57208H152.879V16.7542L156.687 12.3317H160.691L156.492 16.9228L160.991 24.8851H157.479L154.388 19.2427L152.875 20.8662V24.8851H149.623V24.8895Z" fill="#0066B2"/>
<path fill-rule="evenodd" clip-rule="evenodd" d="M15.3979 12.1896V0.896035H15.3892V0C15.4326 0 15.4761 0 15.5196 0C15.5457 0 15.5674 0 15.5935 0C15.6326 0 15.65 0 15.6804 0V0.0133075C20.5363 0.102024 24.4749 4.15636 24.4749 9.12448C24.4749 11.2537 23.7489 13.2187 22.536 14.7846C24.4879 16.5988 25.7138 19.2027 25.7138 22.0904C25.7138 25.0934 24.3923 27.7948 22.3013 29.6135C27.1962 27.125 30.5697 21.9706 30.5697 16.0444C30.5697 13.9595 30.1523 11.9634 29.3959 10.1536C28.7612 8.61436 26.7572 8.58775 25.7877 9.67009C25.8269 6.50291 24.3358 3.57971 21.2405 1.12226C27.1397 3.41114 31.3565 9.24868 31.3565 16.0444C31.3565 23.807 25.879 30.2922 18.6539 31.7117C20.458 30.3942 21.9274 28.9925 22.9707 27.4976C24.0967 25.9983 24.7661 24.1175 24.7661 22.0948C24.7661 19.491 23.6663 17.1533 21.91 15.5076C20.4102 17.0735 18.367 18.0848 16.1021 18.2312V31.0286C16.1108 31.0286 16.1108 31.0286 16.1239 31.0286V32C16.076 32 16.0239 32 15.976 32C15.9326 32 15.8804 32 15.8239 32C15.7761 32 15.7283 32 15.6761 32C10.4464 31.8314 6.24261 27.4444 6.24261 22.0904C6.24261 19.4555 7.25552 17.0646 8.90746 15.2814C7.44679 13.6579 6.55127 11.4976 6.55127 9.12448C6.55127 6.22345 7.89456 3.6285 9.98123 1.9562C4.58632 4.24064 0.7825 9.66565 0.7825 15.9645C0.7825 18.0449 1.19983 20.041 1.95625 21.8553C2.59964 23.3901 4.60371 23.43 5.56445 22.3344C5.52967 25.5148 7.01207 28.4159 10.1116 30.8866C4.21246 28.5844 0 22.7602 0 15.9645C0 8.07319 5.66878 1.49931 13.0808 0.226227C8.32928 3.54866 6.55561 7.39008 7.74675 11.6218H7.80761C8.15974 12.7619 8.764 13.7954 9.53346 14.6693C11.1202 13.2454 13.159 12.3271 15.3979 12.1896ZM10.2203 15.3391C10.8072 15.8581 11.4636 16.2972 12.1722 16.6255C12.846 15.5165 13.7155 14.3898 14.7806 13.2365C13.0504 13.4671 11.481 14.2301 10.2203 15.3391ZM12.8634 16.9138C13.6503 17.1799 14.4936 17.3352 15.3674 17.3662V13.6446C14.3458 14.758 13.5068 15.8314 12.8634 16.9138ZM16.1021 13.1478V16.8739C17.1498 15.7339 17.9758 14.6293 18.5844 13.5381C17.7975 13.2942 16.9672 13.1611 16.1021 13.1478ZM21.2405 14.931C20.6276 14.4608 19.9538 14.0837 19.2365 13.791C18.5931 14.9265 17.7193 16.0887 16.6238 17.2864C18.4105 17.0335 20.019 16.1863 21.2405 14.931ZM21.8709 14.2035C22.8751 12.9127 23.5054 11.3069 23.5924 9.54145H20.5754C20.5146 10.6681 20.2102 11.7771 19.6799 12.926C20.4711 13.2542 21.2058 13.6889 21.8709 14.2035ZM19.0191 12.682C19.493 11.6218 19.7538 10.5927 19.7973 9.54145H16.0847V12.1763C17.1063 12.1852 18.0975 12.3671 19.0191 12.682ZM12.4331 17.6945C11.7505 19.0119 11.381 20.3205 11.3245 21.6335H15.3674V18.2445C14.3328 18.2268 13.3503 18.036 12.4331 17.6945ZM11.3332 22.4896C11.3897 23.4433 11.6201 24.4103 12.0157 25.3906C12.9808 24.9426 14.1067 24.6365 15.3718 24.4148V22.4896H11.3332ZM12.3331 26.1092C13.0069 27.4888 14.0111 28.9215 15.3674 30.4031V25.2664C14.2632 25.4217 13.246 25.6923 12.3331 26.1092ZM14.8719 30.9665C13.4068 29.4494 12.2983 27.9678 11.568 26.5085C10.8159 26.9609 10.1551 27.5154 9.59432 28.2207C10.9594 29.7022 12.8026 30.687 14.8719 30.9665ZM11.2332 25.7899C10.7681 24.6853 10.5116 23.5853 10.4681 22.4896H7.20335C7.29464 24.4635 8.00759 26.2689 9.15525 27.7061C9.65518 26.9387 10.3594 26.3044 11.2332 25.7899ZM10.4725 21.6335C10.5551 20.2451 10.9767 18.8345 11.7288 17.4017C10.9463 17.0247 10.229 16.5323 9.58998 15.9645C8.19886 17.4594 7.31203 19.4466 7.2077 21.6335H10.4725ZM19.7929 8.74744C19.7407 7.87802 19.5321 6.99085 19.1669 6.10369C18.2801 6.49848 17.2411 6.78237 16.0891 6.99085V8.74744H19.7929ZM18.867 5.42944C18.254 4.1608 17.3237 2.84336 16.0847 1.46826V6.20571C17.0933 6.06377 18.0323 5.80649 18.867 5.42944ZM16.5281 0.967009C17.8845 2.35542 18.8974 3.71722 19.5712 5.0524C20.2581 4.64874 20.871 4.12531 21.3927 3.48655C20.1407 2.12476 18.4366 1.20211 16.5281 0.967009ZM19.8842 5.72221C20.3146 6.73357 20.5493 7.75381 20.5841 8.74744H23.5924C23.5098 6.94206 22.8534 5.28306 21.797 3.96119C21.3318 4.67092 20.6841 5.26088 19.8842 5.72221Z" fill="#0066B2"/>
</svg>
