<svg width="504" height="201" viewBox="0 0 504 201" fill="none" xmlns="http://www.w3.org/2000/svg">
<path d="M253.49 201C389.546 201 499.842 193.698 499.842 184.691C499.842 175.684 389.546 168.382 253.49 168.382C117.433 168.382 7.13792 175.684 7.13792 184.691C7.13792 193.698 117.433 201 253.49 201Z" fill="#F2F2F2"/>
<path d="M244.048 6.15021C203.91 6.15021 175.092 31.9013 175.092 91.9871C175.092 160.084 203.91 178.11 244.048 178.11C284.185 178.11 314.72 158.368 314.72 91.9871C314.72 21.0286 284.185 6.15021 244.048 6.15021ZM244.312 155.506C216.511 155.506 201.988 139.197 201.988 92.0311C201.988 50.4143 217.106 28.4678 244.906 28.4678C272.706 28.4678 287.825 42.8836 287.825 92.0311C287.825 138.008 272.112 155.506 244.312 155.506Z" fill="#2E3131"/>
<path d="M151.058 130.614H134.463V81.7453C134.463 79.1497 133.432 76.6604 131.596 74.825C129.761 72.9896 127.271 71.9585 124.676 71.9585H120.787C119.502 71.9585 118.229 72.2117 117.042 72.7035C115.855 73.1953 114.776 73.9162 113.867 74.825C112.958 75.7338 112.237 76.8127 111.746 78.0001C111.254 79.1874 111.001 80.4601 111.001 81.7453V130.614H64.1913C63.2283 130.614 62.2817 130.365 61.4433 129.891C60.6048 129.418 59.9031 128.735 59.406 127.91C58.909 127.086 58.6335 126.146 58.6064 125.184C58.5793 124.221 58.8015 123.268 59.2514 122.417L108.794 28.6486C109.411 27.4796 109.786 26.1975 109.894 24.8798C110.003 23.562 109.843 22.236 109.425 20.9817C109.007 19.7273 108.339 18.5707 107.461 17.5817C106.584 16.5926 105.515 15.7916 104.32 15.2271L101.395 13.846C99.124 12.7736 96.5277 12.6153 94.1433 13.4037C91.7589 14.1922 89.7689 15.8671 88.5849 18.0819L28.1615 131.115C27.1326 133.04 26.5942 135.189 26.5942 137.372C26.5942 139.114 26.9375 140.84 27.6044 142.45C28.2713 144.06 29.2488 145.523 30.4811 146.755C31.7134 147.988 33.1764 148.965 34.7865 149.632C36.3965 150.299 38.1222 150.642 39.8649 150.642H111.001V181.544C111.001 183.084 111.304 184.61 111.894 186.033C112.483 187.456 113.347 188.749 114.436 189.839C115.526 190.928 116.819 191.792 118.242 192.382C119.666 192.971 121.191 193.275 122.732 193.275H122.732C124.272 193.275 125.798 192.971 127.221 192.382C128.644 191.792 129.937 190.928 131.027 189.839C132.116 188.749 132.98 187.456 133.57 186.033C134.159 184.61 134.463 183.084 134.463 181.544V150.642H151.058C153.714 150.642 156.261 149.587 158.139 147.709C160.017 145.831 161.072 143.284 161.072 140.628C161.072 137.972 160.017 135.425 158.139 133.547C156.261 131.669 153.714 130.614 151.058 130.614Z" fill="#0179D2"/>
<path d="M458.354 130.614H441.759V81.7453C441.759 79.1497 440.728 76.6604 438.892 74.825C437.057 72.9896 434.568 71.9585 431.972 71.9585H428.083C426.798 71.9585 425.526 72.2117 424.338 72.7035C423.151 73.1953 422.072 73.9162 421.163 74.825C420.254 75.7338 419.534 76.8127 419.042 78.0001C418.55 79.1874 418.297 80.4601 418.297 81.7453V130.614H371.487C370.524 130.614 369.578 130.365 368.739 129.891C367.901 129.418 367.199 128.735 366.702 127.91C366.205 127.086 365.93 126.146 365.903 125.184C365.875 124.221 366.098 123.268 366.548 122.417L416.09 28.6486C416.708 27.4796 417.082 26.1975 417.19 24.8798C417.299 23.562 417.139 22.236 416.721 20.9817C416.303 19.7273 415.635 18.5707 414.758 17.5817C413.88 16.5926 412.811 15.7916 411.616 15.2271L408.691 13.846C406.42 12.7736 403.824 12.6153 401.44 13.4037C399.055 14.1922 397.065 15.8671 395.881 18.0819L335.458 131.115C334.429 133.04 333.89 135.189 333.89 137.372C333.89 140.891 335.289 144.267 337.777 146.755C340.266 149.244 343.642 150.642 347.161 150.642H418.297V181.544C418.297 184.655 419.533 187.639 421.733 189.839C423.933 192.039 426.916 193.275 430.028 193.275C433.139 193.275 436.123 192.039 438.323 189.839C440.523 187.639 441.759 184.655 441.759 181.544V150.642H458.354C461.01 150.642 463.557 149.587 465.435 147.709C467.313 145.831 468.368 143.284 468.368 140.628C468.368 137.972 467.313 135.425 465.435 133.547C463.557 131.669 461.01 130.614 458.354 130.614Z" fill="#0179D2"/>
<path d="M155.636 124.891H139.041V76.0228C139.041 74.7376 138.787 73.465 138.296 72.2776C137.804 71.0902 137.083 70.0113 136.174 69.1025C135.265 68.1938 134.186 67.4729 132.999 66.981C131.812 66.4892 130.539 66.2361 129.254 66.2361H125.365C122.77 66.2361 120.28 67.2672 118.445 69.1025C116.61 70.9379 115.579 73.4272 115.579 76.0228V124.891H68.7693C67.8063 124.891 66.8597 124.642 66.0213 124.169C65.1828 123.695 64.481 123.013 63.984 122.188C63.4869 121.363 63.2115 120.424 63.1844 119.461C63.1573 118.499 63.3795 117.546 63.8293 116.694L113.372 22.9262C113.989 21.7572 114.364 20.4751 114.472 19.1573C114.581 17.8396 114.421 16.5135 114.003 15.2592C113.585 14.0049 112.917 12.8483 112.039 11.8592C111.162 10.8702 110.093 10.0692 108.898 9.50461L105.973 8.12355C103.702 7.05117 101.106 6.89283 98.7213 7.68128C96.3369 8.46972 94.3469 10.1446 93.1629 12.3594L32.7395 125.393C31.7105 127.318 31.1722 129.467 31.1722 131.649V131.649C31.1722 135.169 32.5704 138.544 35.0591 141.033C37.5479 143.522 40.9233 144.92 44.4429 144.92H115.579V175.821C115.579 177.362 115.882 178.887 116.471 180.31C117.061 181.734 117.925 183.027 119.014 184.116C120.104 185.206 121.397 186.07 122.82 186.659C124.244 187.249 125.769 187.552 127.31 187.552H127.31C130.421 187.552 133.405 186.316 135.605 184.116C137.805 181.916 139.041 178.932 139.041 175.821V144.92H155.636C156.951 144.92 158.253 144.661 159.468 144.158C160.683 143.654 161.787 142.917 162.717 141.987C163.647 141.057 164.384 139.953 164.888 138.738C165.391 137.523 165.65 136.221 165.65 134.906V134.906C165.65 133.59 165.391 132.288 164.888 131.073C164.384 129.858 163.647 128.754 162.717 127.824C161.787 126.894 160.683 126.157 159.468 125.654C158.253 125.15 156.951 124.891 155.636 124.891V124.891Z" stroke="#586268" stroke-miterlimit="10"/>
<path d="M466.938 124.891H450.342V76.0228C450.342 73.4272 449.311 70.9379 447.476 69.1025C445.641 67.2672 443.151 66.2361 440.556 66.2361H436.667C435.382 66.2361 434.109 66.4892 432.922 66.981C431.734 67.4729 430.656 68.1938 429.747 69.1025C428.838 70.0113 428.117 71.0902 427.625 72.2776C427.133 73.465 426.88 74.7376 426.88 76.0228V124.891H380.071C379.108 124.891 378.161 124.642 377.323 124.169C376.485 123.695 375.783 123.013 375.286 122.188C374.789 121.363 374.513 120.424 374.486 119.461C374.459 118.499 374.681 117.546 375.131 116.694L424.673 22.9262C425.291 21.7572 425.666 20.4751 425.774 19.1573C425.883 17.8396 425.723 16.5135 425.305 15.2592C424.887 14.0049 424.219 12.8483 423.341 11.8592C422.464 10.8702 421.395 10.0692 420.199 9.50461L417.275 8.12355C415.004 7.05117 412.408 6.89283 410.023 7.68128C407.639 8.46972 405.649 10.1446 404.465 12.3594L344.041 125.393C343.012 127.318 342.474 129.467 342.474 131.649C342.474 135.169 343.872 138.544 346.361 141.033C348.85 143.522 352.225 144.92 355.745 144.92H426.88V175.821C426.88 178.932 428.116 181.916 430.316 184.116C432.516 186.316 435.5 187.552 438.611 187.552V187.552C441.723 187.552 444.706 186.316 446.906 184.116C449.106 181.916 450.342 178.932 450.342 175.821V144.92H466.938C468.253 144.92 469.555 144.661 470.77 144.158C471.985 143.654 473.089 142.917 474.019 141.987C474.949 141.057 475.686 139.953 476.19 138.738C476.693 137.523 476.952 136.221 476.952 134.906V134.906C476.952 132.25 475.897 129.702 474.019 127.824C472.141 125.946 469.593 124.891 466.938 124.891V124.891Z" stroke="#586268" stroke-miterlimit="10"/>
<path d="M253.204 1C213.066 1 184.248 26.7511 184.248 86.8369C184.248 154.934 213.066 172.96 253.204 172.96C293.341 172.96 323.876 153.217 323.876 86.8369C323.876 15.8784 293.341 1 253.204 1ZM253.468 150.356C225.667 150.356 211.144 134.047 211.144 86.8809C211.144 45.2641 226.262 23.3176 254.062 23.3176C281.862 23.3176 296.981 37.7334 296.981 86.8809C296.981 132.858 281.268 150.356 253.468 150.356V150.356Z" stroke="#586268" stroke-miterlimit="10"/>
<path d="M471.223 124.091C472.638 124.605 474.153 124.784 475.648 124.613C477.144 124.442 478.579 123.926 479.841 123.105C481.103 122.285 482.158 121.183 482.921 119.885C483.685 118.588 484.136 117.131 484.24 115.629C484.345 114.128 484.099 112.622 483.522 111.232C482.945 109.841 482.053 108.604 480.917 107.617C479.78 106.63 478.43 105.92 476.972 105.544C475.515 105.168 473.99 105.136 472.517 105.45L472.761 110.453L470.394 106.165C468.071 107.257 466.276 109.226 465.404 111.64C465.095 112.485 464.906 113.371 464.845 114.269C464.696 116.377 465.238 118.476 466.389 120.249C467.539 122.021 469.237 123.37 471.223 124.091Z" fill="#57B894"/>
<path d="M482.935 182.115C482.099 177.86 485.72 174.088 489.296 171.637C492.872 169.185 497.051 166.776 498.271 162.615C500.025 156.636 494.801 151.159 490.735 146.437C487.719 142.932 485.129 139.083 483.018 134.968C482.173 133.318 481.395 131.594 481.173 129.753C480.852 127.103 481.704 124.465 482.562 121.937C485.419 113.515 488.475 105.163 491.728 96.8814" stroke="#586268" stroke-miterlimit="10"/>
<path d="M471.623 122.803C473.038 123.317 474.553 123.496 476.049 123.325C477.544 123.154 478.979 122.638 480.242 121.817C481.504 120.997 482.558 119.895 483.321 118.597C484.085 117.3 484.536 115.843 484.641 114.341C484.745 112.84 484.499 111.334 483.922 109.944C483.345 108.553 482.454 107.316 481.317 106.329C480.18 105.342 478.83 104.632 477.373 104.256C475.915 103.88 474.39 103.848 472.918 104.162L473.161 109.165L470.794 104.877C468.471 105.969 466.677 107.938 465.805 110.352C465.495 111.197 465.307 112.083 465.246 112.981C465.096 115.089 465.638 117.188 466.789 118.961C467.94 120.733 469.637 122.082 471.623 122.803V122.803Z" stroke="#586268" stroke-miterlimit="10"/>
<path d="M481.747 95.1537C482.302 93.6218 483.234 92.2543 484.456 91.1772C485.679 90.1001 487.153 89.348 488.743 88.9902L489.543 93.7462L491.027 88.7512C493.087 88.7817 495.084 89.4661 496.729 90.7057C498.375 91.9452 499.584 93.6757 500.182 95.6472C500.781 97.6188 500.737 99.7295 500.057 101.674C499.378 103.619 498.097 105.298 496.402 106.468C494.706 107.638 492.682 108.239 490.622 108.184C488.563 108.129 486.574 107.421 484.943 106.161C483.312 104.902 482.124 103.158 481.549 101.179C480.975 99.2005 481.044 97.0905 481.747 95.1537H481.747Z" fill="#57B894"/>
<path d="M482.28 93.4364C482.836 91.9045 483.767 90.537 484.99 89.4598C486.213 88.3827 487.687 87.6306 489.276 87.2729L490.077 92.0289L491.56 87.0338C493.62 87.0643 495.617 87.7488 497.263 88.9883C498.909 90.2278 500.118 91.9583 500.716 93.9299C501.314 95.9015 501.27 98.0121 500.591 99.9571C499.911 101.902 498.631 103.581 496.935 104.751C495.239 105.921 493.216 106.522 491.156 106.467C489.097 106.411 487.108 105.703 485.477 104.444C483.846 103.185 482.658 101.44 482.083 99.4617C481.509 97.4831 481.578 95.3731 482.28 93.4364H482.28Z" stroke="#586268" stroke-miterlimit="10"/>
<path d="M489.029 146.533C491.273 147.347 493.737 147.307 495.953 146.42C498.169 145.534 499.981 143.863 501.044 141.726C502.107 139.589 502.347 137.136 501.718 134.834C501.088 132.532 499.633 130.542 497.631 129.243L496.491 133.082L495.683 128.269C495.675 128.266 495.666 128.263 495.658 128.26C494.458 127.824 493.184 127.629 491.908 127.685C490.632 127.742 489.38 128.049 488.224 128.589C487.067 129.13 486.028 129.893 485.166 130.835C484.304 131.777 483.637 132.88 483.201 134.08C482.766 135.281 482.571 136.555 482.629 137.83C482.686 139.106 482.994 140.358 483.535 141.514C484.076 142.671 484.84 143.709 485.783 144.57C486.725 145.432 487.828 146.099 489.029 146.533H489.029Z" fill="#57B894"/>
<path d="M489.492 144.794C491.735 145.608 494.2 145.567 496.416 144.681C498.632 143.794 500.444 142.123 501.507 139.987C502.57 137.85 502.81 135.396 502.18 133.094C501.551 130.792 500.096 128.802 498.094 127.504L496.953 131.342L496.145 126.53C496.137 126.526 496.129 126.523 496.12 126.521C494.92 126.084 493.646 125.889 492.37 125.946C491.095 126.002 489.843 126.309 488.686 126.85C487.529 127.39 486.49 128.153 485.629 129.096C484.767 130.038 484.099 131.141 483.664 132.341C483.228 133.541 483.034 134.815 483.091 136.091C483.148 137.367 483.456 138.618 483.997 139.775C484.539 140.931 485.302 141.97 486.245 142.831C487.188 143.692 488.291 144.359 489.491 144.794H489.492Z" stroke="#586268" stroke-miterlimit="10"/>
<path d="M478.91 162.675C479.296 164.87 480.425 166.865 482.107 168.327C483.79 169.789 485.924 170.627 488.151 170.702C490.379 170.777 492.564 170.084 494.341 168.739C496.118 167.394 497.379 165.479 497.911 163.315C498.444 161.15 498.216 158.869 497.266 156.853C496.316 154.837 494.702 153.208 492.694 152.241C490.686 151.274 488.407 151.026 486.238 151.54C484.07 152.054 482.144 153.298 480.783 155.063L485.114 161.581L479.197 158.122C478.738 159.595 478.64 161.156 478.91 162.675Z" fill="#57B894"/>
<path d="M479.31 161.387C479.696 163.582 480.825 165.577 482.508 167.039C484.19 168.501 486.324 169.339 488.551 169.414C490.779 169.489 492.964 168.796 494.741 167.451C496.518 166.106 497.779 164.191 498.312 162.027C498.844 159.862 498.616 157.581 497.666 155.565C496.717 153.549 495.102 151.92 493.094 150.953C491.087 149.986 488.807 149.738 486.639 150.252C484.47 150.766 482.544 152.01 481.183 153.775L485.514 160.293L479.597 156.834C479.138 158.307 479.04 159.868 479.31 161.387V161.387Z" stroke="#586268" stroke-miterlimit="10"/>
<path d="M5.2063 147.768C6.1358 148.106 7.13109 148.224 8.11371 148.111C9.09633 147.999 10.0394 147.66 10.8686 147.121C11.6979 146.582 12.3906 145.858 12.8922 145.005C13.3937 144.153 13.6905 143.195 13.759 142.209C13.8275 141.222 13.6659 140.233 13.287 139.32C12.908 138.406 12.322 137.593 11.5753 136.945C10.8285 136.296 9.94131 135.83 8.98365 135.583C8.02599 135.336 7.02403 135.315 6.05674 135.521L6.21659 138.808L4.66148 135.991C3.13523 136.708 1.95613 138.002 1.38331 139.588C1.17988 140.143 1.0562 140.725 1.01598 141.315C0.917822 142.7 1.27379 144.079 2.02993 145.244C2.78608 146.408 3.90119 147.295 5.2063 147.768Z" fill="#57B894"/>
<path d="M12.901 185.891C12.3521 183.096 14.7308 180.617 17.0805 179.007C19.4301 177.396 22.1755 175.813 22.9772 173.079C24.1294 169.151 20.6974 165.553 18.0262 162.45C16.0444 160.147 14.3425 157.618 12.9561 154.915C12.3533 153.853 11.9428 152.693 11.7434 151.489C11.5328 149.747 12.0922 148.014 12.6559 146.353C14.5336 140.819 16.5412 135.332 18.6787 129.891" stroke="#586268" stroke-miterlimit="10"/>
<path d="M5.46931 146.922C6.39881 147.26 7.39409 147.377 8.37671 147.265C9.35933 147.153 10.3024 146.814 11.1316 146.275C11.9609 145.736 12.6536 145.011 13.1551 144.159C13.6567 143.306 13.9535 142.349 14.022 141.363C14.0905 140.376 13.9289 139.387 13.5499 138.473C13.171 137.56 12.585 136.747 11.8383 136.098C11.0915 135.45 10.2043 134.984 9.24665 134.737C8.28899 134.49 7.28703 134.468 6.31975 134.674L6.47959 137.961L4.92448 135.144C3.39823 135.862 2.21913 137.155 1.64631 138.741C1.44288 139.297 1.31921 139.879 1.27898 140.469C1.18082 141.854 1.53678 143.233 2.29293 144.398C3.04908 145.562 4.16419 146.448 5.46931 146.922V146.922Z" stroke="#586268" stroke-miterlimit="10"/>
<path d="M12.1205 128.756C12.4853 127.75 13.0975 126.851 13.9008 126.143C14.704 125.436 15.6725 124.942 16.7169 124.706L17.2427 127.831L18.2176 124.549C19.5711 124.57 20.8832 125.019 21.9645 125.834C23.0457 126.648 23.8402 127.785 24.2332 129.08C24.6262 130.376 24.5973 131.762 24.1508 133.04C23.7043 134.318 22.8633 135.421 21.7491 136.19C20.6349 136.959 19.3052 137.353 17.952 137.317C16.5989 137.281 15.2922 136.815 14.2207 135.988C13.1493 135.161 12.3684 134.015 11.9909 132.715C11.6134 131.415 11.6588 130.028 12.1205 128.756Z" fill="#57B894"/>
<path d="M12.4712 127.628C12.8359 126.621 13.4482 125.723 14.2514 125.015C15.0547 124.307 16.0232 123.813 17.0676 123.578L17.5934 126.703L18.5682 123.421C19.9217 123.441 21.2338 123.891 22.3151 124.705C23.3964 125.52 24.1908 126.657 24.5838 127.952C24.9768 129.247 24.948 130.634 24.5015 131.912C24.055 133.19 23.2139 134.293 22.0997 135.061C20.9855 135.83 19.6558 136.225 18.3027 136.189C16.9495 136.152 15.6429 135.687 14.5714 134.86C13.4999 134.033 12.719 132.886 12.3415 131.586C11.964 130.286 12.0094 128.9 12.4712 127.628V127.628Z" stroke="#586268" stroke-miterlimit="10"/>
<path d="M16.9052 162.513C18.3793 163.048 19.9986 163.022 21.4545 162.439C22.9103 161.857 24.101 160.759 24.7995 159.355C25.4979 157.951 25.6554 156.339 25.2418 154.827C24.8282 153.314 23.8725 152.006 22.5568 151.153L21.8078 153.675L21.2766 150.514C21.2714 150.511 21.2659 150.509 21.2604 150.508C20.4719 150.221 19.6346 150.092 18.7965 150.129C17.9583 150.166 17.1356 150.368 16.3755 150.723C15.6153 151.078 14.9326 151.58 14.3663 152.199C13.8 152.818 13.3613 153.542 13.0752 154.331C12.7891 155.12 12.6612 155.957 12.6989 156.795C12.7365 157.633 12.939 158.456 13.2947 159.216C13.6503 159.976 14.1523 160.658 14.7718 161.224C15.3913 161.79 16.1162 162.228 16.9052 162.513Z" fill="#57B894"/>
<path d="M17.209 161.37C18.6831 161.905 20.3024 161.879 21.7583 161.296C23.2142 160.714 24.4048 159.616 25.1033 158.212C25.8018 156.808 25.9592 155.196 25.5456 153.684C25.132 152.171 24.1763 150.864 22.8607 150.01L22.1116 152.532L21.5805 149.371C21.5752 149.368 21.5698 149.366 21.5642 149.365C20.7759 149.079 19.939 148.951 19.1013 148.988C18.2635 149.026 17.4414 149.228 16.6817 149.583C15.1476 150.3 13.9612 151.598 13.3837 153.19C12.8062 154.782 12.8847 156.538 13.6021 158.072C14.3195 159.607 15.6169 160.793 17.209 161.37V161.37Z" stroke="#586268" stroke-miterlimit="10"/>
<path d="M10.2569 173.119C10.5104 174.561 11.252 175.872 12.3575 176.832C13.4629 177.792 14.8649 178.343 16.3284 178.393C17.7919 178.442 19.2278 177.987 20.3954 177.103C21.5629 176.219 22.3911 174.961 22.741 173.539C23.0909 172.117 22.9412 170.618 22.3172 169.293C21.6931 167.969 20.6325 166.899 19.3133 166.263C17.994 165.628 16.4964 165.465 15.0716 165.803C13.6467 166.141 12.3813 166.958 11.4875 168.118L14.3327 172.4L10.4451 170.127C10.1437 171.095 10.0791 172.121 10.2569 173.119Z" fill="#57B894"/>
<path d="M10.5199 172.272C10.7733 173.714 11.515 175.026 12.6204 175.986C13.7259 176.946 15.1279 177.497 16.5914 177.546C18.0548 177.596 19.4908 177.14 20.6583 176.257C21.8259 175.373 22.654 174.115 23.0039 172.693C23.3538 171.271 23.2042 169.772 22.5801 168.447C21.956 167.122 20.8954 166.053 19.5762 165.417C18.257 164.782 16.7594 164.619 15.3345 164.957C13.9097 165.294 12.6442 166.112 11.7505 167.272L14.5957 171.554L10.708 169.281C10.4066 170.249 10.3421 171.274 10.5199 172.272V172.272Z" stroke="#586268" stroke-miterlimit="10"/>
<path d="M225.61 87.4607C229.995 87.4607 233.549 82.8607 233.549 77.1863C233.549 71.5119 229.995 66.9119 225.61 66.9119C221.225 66.9119 217.671 71.5119 217.671 77.1863C217.671 82.8607 221.225 87.4607 225.61 87.4607Z" fill="#2E3131"/>
<path d="M268.809 87.6942C273.194 87.6942 276.748 83.0942 276.748 77.4198C276.748 71.7454 273.194 67.1454 268.809 67.1454C264.424 67.1454 260.87 71.7454 260.87 77.4198C260.87 83.0942 264.424 87.6942 268.809 87.6942Z" fill="#2E3131"/>
<path d="M262.738 107.776C262.738 112.418 256.256 116.182 248.26 116.182C240.265 116.182 233.783 112.418 233.783 107.776C233.783 103.755 238.644 100.392 245.141 99.5705C246.175 99.4341 247.217 99.367 248.26 99.3697C250.008 99.364 251.752 99.552 253.458 99.9301C258.885 101.14 262.738 104.199 262.738 107.776Z" fill="#2E3131"/>
<path d="M227.478 85.1256C231.863 85.1256 235.417 80.5256 235.417 74.8512C235.417 69.1768 231.863 64.5768 227.478 64.5768C223.093 64.5768 219.539 69.1768 219.539 74.8512C219.539 80.5256 223.093 85.1256 227.478 85.1256Z" stroke="#586268" stroke-miterlimit="10"/>
<path d="M270.677 85.3591C275.062 85.3591 278.617 80.7591 278.617 75.0847C278.617 69.4104 275.062 64.8103 270.677 64.8103C266.292 64.8103 262.738 69.4104 262.738 75.0847C262.738 80.7591 266.292 85.3591 270.677 85.3591Z" stroke="#586268" stroke-miterlimit="10"/>
<path d="M250.128 113.847C258.124 113.847 264.606 110.084 264.606 105.441C264.606 100.798 258.124 97.0346 250.128 97.0346C242.133 97.0346 235.651 100.798 235.651 105.441C235.651 110.084 242.133 113.847 250.128 113.847Z" stroke="#586268" stroke-miterlimit="10"/>
<path d="M253.631 100.631C253.635 101.218 253.414 101.784 253.015 102.215C252.826 102.421 252.596 102.586 252.341 102.699C252.085 102.812 251.809 102.871 251.53 102.872H246.859C246.284 102.852 245.74 102.605 245.346 102.185C244.952 101.765 244.741 101.206 244.758 100.631C244.755 100.175 244.889 99.7296 245.141 99.3504C246.174 99.2049 247.217 99.1334 248.26 99.1362C250.011 99.1304 251.755 99.3311 253.458 99.734C253.574 100.019 253.632 100.323 253.631 100.631Z" fill="white"/>
<path d="M227.478 74.3842C228.768 74.3842 229.813 73.3388 229.813 72.0491C229.813 70.7595 228.768 69.714 227.478 69.714C226.188 69.714 225.143 70.7595 225.143 72.0491C225.143 73.3388 226.188 74.3842 227.478 74.3842Z" fill="white"/>
<path d="M270.911 74.3842C272.2 74.3842 273.246 73.3388 273.246 72.0491C273.246 70.7595 272.2 69.714 270.911 69.714C269.621 69.714 268.576 70.7595 268.576 72.0491C268.576 73.3388 269.621 74.3842 270.911 74.3842Z" fill="white"/>
<path opacity="0.3" d="M273.246 96.334C274.535 96.334 275.581 95.2886 275.581 93.999C275.581 92.7093 274.535 91.6639 273.246 91.6639C271.956 91.6639 270.911 92.7093 270.911 93.999C270.911 95.2886 271.956 96.334 273.246 96.334Z" fill="#0179D2"/>
<path opacity="0.3" d="M216.27 96.334C217.559 96.334 218.605 95.2886 218.605 93.999C218.605 92.7093 217.559 91.6639 216.27 91.6639C214.98 91.6639 213.935 92.7093 213.935 93.999C213.935 95.2886 214.98 96.334 216.27 96.334Z" fill="#0179D2"/>
</svg>
