<svg width="12" height="14" viewBox="0 0 12 14" fill="none" xmlns="http://www.w3.org/2000/svg">
<path d="M8.38393 8.3125C7.60714 8.3125 7.25893 8.75 6 8.75C4.71429 8.75 4.36607 8.3125 3.58929 8.3125C1.60714 8.3125 0 9.98047 0 12.0039V12.6875C0 13.4258 0.5625 14 1.28571 14H10.7143C11.4107 14 12 13.4258 12 12.6875V12.0039C12 9.98047 10.3661 8.3125 8.38393 8.3125ZM10.7143 12.6875H1.28571V12.0039C1.28571 10.6914 2.30357 9.625 3.58929 9.625C3.99107 9.625 4.60714 10.0625 6 10.0625C7.36607 10.0625 7.98214 9.625 8.38393 9.625C9.66964 9.625 10.7143 10.6914 10.7143 12.0039V12.6875ZM6 7.875C8.11607 7.875 9.85714 6.125 9.85714 3.9375C9.85714 1.77734 8.11607 0 6 0C3.85714 0 2.14286 1.77734 2.14286 3.9375C2.14286 6.125 3.85714 7.875 6 7.875ZM6 1.3125C7.39286 1.3125 8.57143 2.51562 8.57143 3.9375C8.57143 5.38672 7.39286 6.5625 6 6.5625C4.58036 6.5625 3.42857 5.38672 3.42857 3.9375C3.42857 2.51562 4.58036 1.3125 6 1.3125Z" fill="#BDC3C7"/>
</svg>
