<svg width="224" height="64" viewBox="0 0 224 64" fill="none" xmlns="http://www.w3.org/2000/svg">
<g filter="url(#filter0_d)">
<mask id="mask0" mask-type="alpha" maskUnits="userSpaceOnUse" x="49" y="10" width="172" height="25">
<path fill-rule="evenodd" clip-rule="evenodd" d="M49.8009 10.5051H220V34.6042H49.8009V10.5051Z" fill="white"/>
</mask>
<g mask="url(#mask0)">
<path fill-rule="evenodd" clip-rule="evenodd" d="M204.335 34.222V10.5051H208.821V23.0838L214.067 17.0284H219.584L213.802 23.3165L220.001 34.222H215.164L210.906 26.4952L208.821 28.7201V34.222H204.335ZM199.842 34.222H195.364V25.4533C195.364 24.1191 195.342 23.2728 195.296 22.9508C195.061 21.0649 194.159 20.1378 192.585 20.1378C191.77 20.1378 191.053 20.3492 190.414 20.8304C189.773 21.2988 189.356 21.9228 189.172 22.709C188.986 23.4866 188.88 24.7309 188.88 26.4375V34.222H184.399V17.0284H188.567V19.5673C190.033 17.6122 191.892 16.6462 194.163 16.6462C196.835 16.6462 198.555 17.6627 199.331 19.6682C199.671 20.5473 199.842 21.8535 199.842 23.5371V34.222ZM175.721 25.9751C175.409 26.0924 174.484 26.3293 172.959 26.6671C171.952 26.895 171.236 27.1161 170.824 27.33C170.062 27.731 169.681 28.3112 169.681 29.07C169.681 29.7462 169.917 30.3167 170.4 30.7402C170.883 31.1764 171.472 31.4066 172.166 31.4066C172.854 31.4066 173.516 31.2134 174.16 30.827C174.858 30.3993 175.305 29.875 175.493 29.2492C175.64 28.7802 175.721 27.9703 175.721 26.8816V25.9751ZM169.727 22.277L165.657 21.5406C166.452 18.2745 168.888 16.6462 172.947 16.6462C176.517 16.6462 178.725 17.5387 179.583 19.3073C179.955 20.1008 180.134 21.3705 180.121 23.1051L180.08 28.3525C180.052 30.9789 180.393 32.9249 181.099 34.222H176.66C176.594 33.9966 176.481 33.6789 176.34 33.2469L176.07 32.3404C174.584 33.8447 172.832 34.6042 170.824 34.6042C169.215 34.6042 167.898 34.185 166.851 33.3113C165.76 32.3824 165.199 31.1357 165.199 29.5257C165.199 27.8093 165.833 26.5183 167.107 25.6373C168.009 25.0298 169.437 24.5237 171.381 24.147C173.596 23.6914 175.039 23.3165 175.721 23.02V22.5662C175.721 21.5704 175.434 20.8942 174.876 20.5382C174.441 20.2666 173.702 20.1378 172.66 20.1378C171.125 20.1378 170.15 20.8347 169.727 22.277ZM147.548 23.8779V30.225H151.92C153.511 30.225 154.397 30.2152 154.583 30.1873C156.546 29.9534 157.538 28.937 157.538 27.1277C157.538 25.3998 156.708 24.3998 155.058 24.0918C154.288 23.9465 153.058 23.8779 151.357 23.8779H147.548ZM147.548 14.4499V19.9306H152.634C155.326 19.9306 156.668 19.0084 156.668 17.1456C156.668 15.5836 155.925 14.7094 154.454 14.5465C153.758 14.5004 152.366 14.4499 150.256 14.4499H147.548ZM142.829 10.5051H152.166C154.177 10.5051 155.598 10.5884 156.416 10.7627C157.864 11.0641 159.016 11.7154 159.896 12.7154C160.801 13.7829 161.258 15.0411 161.258 16.515C161.258 17.6074 160.961 18.6268 160.355 19.5673C159.752 20.4853 158.966 21.1889 157.969 21.6215C159.33 21.9915 160.419 22.6932 161.214 23.7029C162.008 24.7193 162.404 25.9387 162.404 27.3348C162.404 28.8446 161.98 30.225 161.137 31.4753C160.23 32.7919 159.071 33.6102 157.67 33.8727C156.428 34.1072 154.132 34.222 150.78 34.222H142.829V10.5051ZM137.636 34.222H133.156V25.4533C133.156 24.1191 133.137 23.2728 133.093 22.9508C132.853 21.0649 131.95 20.1378 130.382 20.1378C129.566 20.1378 128.852 20.3492 128.21 20.8304C127.567 21.2988 127.157 21.9228 126.969 22.709C126.78 23.4866 126.685 24.7309 126.685 26.4375V34.222H122.196V17.0284H126.361V19.5673C127.827 17.6122 129.69 16.6462 131.959 16.6462C134.625 16.6462 136.347 17.6627 137.124 19.6682C137.462 20.5473 137.636 21.8535 137.636 23.5371V34.222ZM113.515 25.9751C113.202 26.0924 112.287 26.3293 110.755 26.6671C109.747 26.895 109.035 27.1161 108.63 27.33C107.856 27.731 107.478 28.3112 107.478 29.07C107.478 29.7462 107.711 30.3167 108.197 30.7402C108.674 31.1764 109.27 31.4066 109.959 31.4066C110.651 31.4066 111.317 31.2134 111.961 30.827C112.65 30.3993 113.099 29.875 113.298 29.2492C113.445 28.7802 113.515 27.9703 113.515 26.8816V25.9751ZM107.518 22.277L103.459 21.5406C104.257 18.2745 106.689 16.6462 110.746 16.6462C114.313 16.6462 116.53 17.5387 117.384 19.3073C117.754 20.1008 117.93 21.3705 117.921 23.1051L117.871 28.3525C117.848 30.9789 118.193 32.9249 118.898 34.222H114.461C114.386 33.9966 114.282 33.6789 114.146 33.2469L113.869 32.3404C112.38 33.8447 110.637 34.6042 108.63 34.6042C107.013 34.6042 105.698 34.185 104.651 33.3113C103.555 32.3824 102.991 31.1357 102.991 29.5257C102.991 27.8093 103.636 26.5183 104.902 25.6373C105.806 25.0298 107.236 24.5237 109.177 24.147C111.394 23.6914 112.84 23.3165 113.515 23.02V22.5662C113.515 21.5704 113.234 20.8942 112.675 20.5382C112.23 20.2666 111.501 20.1378 110.458 20.1378C108.927 20.1378 107.948 20.8347 107.518 22.277ZM95.7547 34.222H91.2743V17.0284H95.4338V19.4847C96.521 17.594 97.8021 16.6462 99.2958 16.6462C100.324 16.6462 101.307 16.9385 102.246 17.5017L100.861 21.4787C100.067 20.961 99.3593 20.7241 98.7145 20.7241C97.2741 20.7241 96.354 21.8146 95.96 24.0085C95.8343 24.7771 95.7547 26.4144 95.7547 28.909V34.222ZM82.5365 34.222V31.6509C81.1847 33.6284 79.3037 34.6042 76.906 34.6042C73.171 34.6042 71.2888 32.3824 71.2888 27.9059V17.0284H75.777V27.8604C75.777 30.05 76.7199 31.1399 78.5967 31.1399C80.6746 31.1399 81.8522 29.9437 82.1563 27.5517C82.1947 27.2036 82.2276 26.127 82.2276 24.2825V17.0284H86.7014V34.222H82.5365ZM56.7347 34.222V14.5186H49.8009V10.5051H68.3775V14.5186H61.4569V34.222H56.7347Z" fill="white"/>
</g>
<mask id="mask1" mask-type="alpha" maskUnits="userSpaceOnUse" x="4" y="0" width="43" height="42">
<path fill-rule="evenodd" clip-rule="evenodd" d="M4 0H46.5654V41.9954H4V0Z" fill="white"/>
</mask>
<g mask="url(#mask1)">
<path fill-rule="evenodd" clip-rule="evenodd" d="M30.9956 7.51093C31.5787 8.83537 31.898 10.1755 31.9464 11.4825H36.0325C35.9222 9.1154 35.0293 6.93575 33.5952 5.20145C32.9585 6.13118 32.0768 6.90722 30.9956 7.51093ZM26.4391 1.26712C28.278 3.0899 29.6554 4.87717 30.5719 6.63126C31.5062 6.10031 32.3394 5.41277 33.0441 4.5756C31.3397 2.78542 29.0275 1.57975 26.4391 1.26712ZM29.6118 7.12262C28.7785 5.45702 27.515 3.72855 25.8337 1.92382V8.14317C27.2063 7.95629 28.4763 7.62329 29.6118 7.12262ZM30.867 11.4825C30.7968 10.3385 30.5129 9.17478 30.0148 8.01335C28.8104 8.53148 27.4011 8.90175 25.8337 9.17478V11.4825H30.867ZM18.2148 28.3923C18.3293 26.5678 18.9006 24.7176 19.9221 22.8372C18.8611 22.3441 17.8855 21.6955 17.0174 20.9527C15.1272 22.9164 13.928 25.5216 13.7817 28.3923H18.2148ZM19.2467 33.8496C18.6158 32.3994 18.267 30.9579 18.2068 29.5165H13.7731C13.8946 32.1083 14.8666 34.4754 16.4228 36.3622C17.1097 35.3568 18.0605 34.5237 19.2467 33.8496ZM24.1911 40.6418C22.2028 38.6496 20.6968 36.7057 19.7053 34.7927C18.6814 35.3883 17.7891 36.1154 17.0261 37.041C18.8762 38.9808 21.3796 40.2762 24.1911 40.6418ZM20.7407 34.2641C21.6543 36.0752 23.0175 37.958 24.8629 39.9018V33.162C23.3628 33.3646 21.9818 33.7215 20.7407 34.2641ZM19.3833 29.5165C19.463 30.7681 19.771 32.0379 20.3086 33.325C21.6176 32.7388 23.1461 32.3377 24.8628 32.0425V29.5165H19.3833ZM20.8772 23.2255C19.9477 24.9552 19.4496 26.6691 19.3747 28.3923H24.8631V23.9439C23.4579 23.9235 22.1218 23.6726 20.8772 23.2255ZM29.8201 16.6423C30.4663 15.2533 30.8192 13.9026 30.8771 12.5229H25.8337V15.9833C27.224 15.992 28.5684 16.2302 29.8201 16.6423ZM33.6932 18.6433C35.0593 16.9486 35.9109 14.8393 36.0278 12.5229H31.9351C31.8548 14.0039 31.44 15.4559 30.7194 16.966C31.7887 17.398 32.7861 17.9668 33.6932 18.6433ZM32.8344 19.5951C32.0041 18.9756 31.0894 18.4849 30.1139 18.0966C29.2428 19.5887 28.0531 21.1093 26.5653 22.6852C28.9949 22.3522 31.1755 21.2438 32.8344 19.5951ZM25.8599 17.2571V22.1497C27.2798 20.6535 28.4058 19.205 29.2291 17.7706C28.1615 17.4486 27.0332 17.2705 25.8599 17.2571ZM21.4636 22.1962C22.5311 22.5444 23.6778 22.7516 24.8628 22.7912V17.905C23.473 19.3663 22.3346 20.7792 21.4636 22.1962ZM17.8729 20.1307C18.6696 20.8118 19.559 21.3893 20.525 21.8167C21.4398 20.3601 22.6171 18.8837 24.0635 17.3694C21.7148 17.6733 19.5831 18.6764 17.8729 20.1307ZM24.9053 16.0008V1.17691H24.8905V-0.000244141H25.0652H25.1655H25.283V0.0154745C31.8802 0.134238 37.2275 5.45704 37.2275 11.9762C37.2275 14.7689 36.2449 17.3514 34.5961 19.4036C37.2476 21.7841 38.91 25.2043 38.91 28.9919C38.91 32.9327 37.116 36.4769 34.2774 38.8656C40.923 35.5996 45.4996 28.8336 45.4996 21.0546C45.4996 18.3172 44.9313 15.6969 43.9057 13.3204C43.0446 11.3021 40.3264 11.2665 39.0086 12.6882C39.0611 8.53149 37.0399 4.69672 32.8345 1.46974C40.8446 4.47608 46.5654 12.1346 46.5654 21.0546C46.5654 31.2403 39.1302 39.7517 29.3213 41.6164C31.7687 39.8885 33.7622 38.0459 35.1809 36.0846C36.707 34.1139 37.6212 31.6455 37.6212 28.9919C37.6212 25.5746 36.1263 22.5048 33.7445 20.349C31.7103 22.4035 28.9342 23.7297 25.8601 23.9235V40.7216H25.8884V41.9953H25.6896H25.4836H25.283C18.1858 41.7747 12.4768 36.0182 12.4768 28.9919C12.4768 25.535 13.8494 22.3942 16.0926 20.0562C14.1121 17.9272 12.8958 15.0908 12.8958 11.9762C12.8958 8.16763 14.7205 4.76484 17.5503 2.56772C10.2265 5.56707 5.0645 12.6882 5.0645 20.9527C5.0645 23.6814 5.62987 26.3029 6.65554 28.6834C7.52778 30.6977 10.2478 30.7507 11.5561 29.3139C11.5083 33.4881 13.5231 37.2966 17.7314 40.5405C9.71959 37.5167 3.99988 29.8734 3.99988 20.9527C3.99988 10.5965 11.6942 1.96983 21.7586 0.294917C15.3071 4.65714 12.9023 9.697 14.5187 15.2533H14.6025C15.0828 16.7477 15.8978 18.1053 16.9448 19.2516C19.0964 17.3828 21.8642 16.1772 24.9053 16.0008Z" fill="white"/>
</g>
<path fill-rule="evenodd" clip-rule="evenodd" d="M216.536 51.2661C216.169 51.7341 215.847 52.3306 215.533 53.0513C215.18 53.8997 214.987 54.342 214.958 54.4092C214.835 54.6096 214.602 54.8358 214.259 55.0824C213.922 55.3296 213.671 55.458 213.521 55.458C213.277 55.458 213.026 55.3038 212.785 54.9798C212.574 54.6972 212.467 54.4547 212.467 54.2448C212.467 54.0696 212.566 53.9357 212.735 53.787C212.979 53.5805 213.138 53.4317 213.205 53.3291C213.523 52.8706 213.689 51.9868 213.689 50.6853C213.689 50.3919 213.572 50.2533 213.358 50.2533C212.979 50.2533 212.785 50.1195 212.785 49.8416C212.785 49.6406 212.905 49.4354 213.166 49.214C213.412 49.0183 213.689 48.8899 213.985 48.8798C214.197 48.8696 214.396 48.7772 214.584 48.6746C214.777 48.5347 214.907 48.4837 214.965 48.4837C215.267 48.4837 215.43 48.8444 215.43 49.5794C215.43 50.1765 215.242 51.2097 214.889 52.6858C215.323 51.7701 215.551 51.3177 215.573 51.2457C215.798 50.8341 215.994 50.5155 216.151 50.3097C216.071 50.0013 216.017 49.6874 216.017 49.3478C216.017 48.5347 216.18 48.0109 216.507 47.7426C217.113 47.2236 217.481 46.9716 217.601 46.9716C217.767 46.9716 217.932 47.1367 218.08 47.4757C218.228 47.8099 218.299 48.0775 218.299 48.2575C218.299 48.2935 218.228 48.4837 218.074 48.8132C217.914 49.1474 217.833 49.4402 217.833 49.6929C217.833 49.8416 217.905 50.0013 218.045 50.1765C218.178 50.3559 218.25 50.5773 218.25 50.8653C218.25 51.1017 218.219 51.2457 218.147 51.3286C218.074 51.4156 217.905 51.5134 217.641 51.6261C217.368 51.7498 217.203 51.8061 217.118 51.8061C216.898 51.8061 216.71 51.6261 216.536 51.2661ZM208.553 55.458C208.242 55.458 207.977 55.3194 207.765 55.0464C207.552 54.774 207.434 54.4092 207.434 53.931C207.434 53.6171 207.606 52.9535 207.937 51.9868C208.264 51.0039 208.663 49.9598 209.119 48.8132C209.213 48.7045 209.347 48.6073 209.53 48.5306C209.714 48.4484 209.889 48.3703 210.068 48.2935C210.13 48.2677 210.251 48.1957 210.448 48.0524C210.592 47.9539 210.697 47.9179 210.784 47.9179C211.034 47.9179 211.151 48.0931 211.151 48.4837C211.151 48.6637 211.066 48.9307 210.905 49.2968C210.593 49.9754 210.412 50.3871 210.376 50.4999C209.929 51.6261 209.707 52.444 209.707 52.9637C209.707 53.3801 209.853 53.5709 210.138 53.5709C210.251 53.5709 210.446 53.4881 210.715 53.2775C210.976 53.092 211.147 52.984 211.236 52.984C211.458 52.984 211.568 53.1022 211.568 53.3706C211.568 53.5186 211.428 53.7713 211.133 54.1157C210.802 54.5118 210.446 54.738 210.068 54.867C209.795 54.9329 209.479 55.0674 209.141 55.2576C208.875 55.4016 208.685 55.458 208.553 55.458ZM205.187 48.7718C204.428 49.502 203.828 50.3301 203.368 51.2457C202.984 52.0072 202.79 52.6397 202.79 53.1484C202.79 53.5553 202.944 53.7612 203.255 53.7612C203.77 53.7612 204.225 53.3801 204.643 52.6295C205.064 51.8632 205.274 50.9835 205.274 49.9598C205.274 49.5896 205.249 49.2038 205.187 48.7718ZM205.023 47.8357C204.463 46.0974 203.824 44.9093 203.089 44.2823C202.829 44.0867 202.472 43.8856 202.011 43.7212C201.67 43.6084 201.5 43.4644 201.5 43.3204C201.5 43.1343 201.726 42.9339 202.172 42.703C202.619 42.4503 202.977 42.3327 203.255 42.3327C203.533 42.3327 203.881 42.4611 204.311 42.7233C204.736 42.9862 205.144 43.3408 205.522 43.8034C206.489 44.9704 206.966 46.4628 206.966 48.2833C206.966 49.754 206.598 51.1894 205.854 52.6091C205.731 52.8299 205.345 53.2924 204.7 53.9717C203.801 54.9234 202.969 55.386 202.181 55.386C201.715 55.386 201.357 55.2162 201.098 54.8766C200.833 54.5376 200.699 54.1158 200.699 53.571C200.699 53.3393 200.766 52.9535 200.905 52.4033C201.039 51.7865 201.169 51.3286 201.299 51.0603C201.558 50.5155 201.99 49.9707 202.597 49.4144C203.293 48.7718 204.097 48.2575 205.023 47.8357ZM196.755 55.458C196.447 55.458 196.18 55.3194 195.959 55.0464C195.749 54.774 195.636 54.4092 195.636 53.931C195.636 53.6171 195.807 52.9535 196.135 51.9868C196.472 51.0039 196.861 49.9598 197.319 48.8132C197.405 48.7045 197.543 48.6073 197.731 48.5306C197.908 48.4484 198.096 48.3703 198.273 48.2935C198.331 48.2677 198.456 48.1957 198.649 48.0524C198.788 47.9539 198.893 47.9179 198.989 47.9179C199.231 47.9179 199.352 48.0931 199.352 48.4837C199.352 48.6637 199.267 48.9307 199.104 49.2968C198.792 49.9754 198.614 50.3871 198.573 50.4999C198.129 51.6261 197.906 52.444 197.906 52.9637C197.906 53.3801 198.045 53.5709 198.336 53.5709C198.461 53.5709 198.649 53.4881 198.909 53.2775C199.17 53.092 199.347 52.984 199.435 52.984C199.66 52.984 199.77 53.1022 199.77 53.3706C199.77 53.5186 199.629 53.7713 199.343 54.1157C198.998 54.5118 198.649 54.738 198.273 54.867C197.991 54.9329 197.682 55.0674 197.333 55.2576C197.078 55.4016 196.885 55.458 196.755 55.458ZM194.625 43.8034C194.823 43.8034 194.923 43.9426 194.923 44.2409C194.923 44.4773 194.574 45.4908 193.886 47.244C192.635 50.4435 192.002 52.3618 192.002 52.984C192.002 53.3903 192.172 53.5968 192.502 53.5968C192.884 53.5968 193.294 53.4113 193.717 53.0404C194.137 52.6498 194.381 52.4746 194.428 52.4746C194.632 52.4746 194.735 52.6193 194.735 52.9073C194.735 53.2775 194.383 53.7611 193.683 54.3725C193.206 54.7998 192.705 55.134 192.172 55.4125C191.767 55.6122 191.514 55.7304 191.402 55.7304C191.291 55.7304 191.167 55.6686 191.031 55.5253C190.848 55.3602 190.731 55.2726 190.686 55.2576C190.315 55.0572 190.104 54.9329 190.073 54.9234C189.894 54.7998 189.804 54.6456 189.804 54.4547C189.804 54.4241 189.818 54.3318 189.845 54.1776C189.87 53.9975 189.887 53.8739 189.887 53.7713C189.887 53.7455 189.88 53.7143 189.87 53.6579V53.5709C189.87 53.1844 190.203 52.0276 190.874 50.1609C191.224 49.1678 191.581 48.2011 191.931 47.2236C192.201 46.4418 192.338 45.897 192.338 45.6599C192.338 45.5526 192.327 45.4337 192.323 45.3053C192.309 45.1769 192.298 45.0995 192.298 45.0635C192.298 44.9399 192.338 44.8678 192.403 44.8271C192.468 44.7653 192.996 44.5289 193.992 44.0608C194.361 43.8856 194.574 43.8034 194.625 43.8034ZM187.187 51.2661C186.821 51.7341 186.479 52.3306 186.186 53.0513C185.83 53.8997 185.637 54.342 185.597 54.4092C185.476 54.6096 185.25 54.8358 184.912 55.0824C184.575 55.3296 184.324 55.458 184.174 55.458C183.927 55.458 183.677 55.3038 183.437 54.9798C183.22 54.6972 183.117 54.4547 183.117 54.2448C183.117 54.0696 183.207 53.9357 183.381 53.787C183.636 53.5805 183.787 53.4317 183.852 53.3291C184.179 52.8706 184.339 51.9868 184.339 50.6853C184.339 50.3919 184.228 50.2533 184.004 50.2533C183.621 50.2533 183.437 50.1195 183.437 49.8416C183.437 49.6406 183.561 49.4354 183.811 49.214C184.055 49.0183 184.339 48.8899 184.644 48.8798C184.85 48.8696 185.049 48.7772 185.232 48.6746C185.422 48.5347 185.552 48.4837 185.619 48.4837C185.917 48.4837 186.072 48.8444 186.072 49.5794C186.072 50.1765 185.89 51.2097 185.53 52.6858C185.971 51.7701 186.193 51.3177 186.219 51.2457C186.443 50.8341 186.633 50.5155 186.803 50.3097C186.712 50.0013 186.669 49.6874 186.669 49.3478C186.669 48.5347 186.824 48.0109 187.148 47.7426C187.763 47.2236 188.131 46.9716 188.251 46.9716C188.421 46.9716 188.573 47.1367 188.721 47.4757C188.874 47.8099 188.95 48.0775 188.95 48.2575C188.95 48.2935 188.869 48.4837 188.719 48.8132C188.567 49.1474 188.484 49.4402 188.484 49.6929C188.484 49.8416 188.553 50.0013 188.695 50.1765C188.834 50.3559 188.903 50.5773 188.903 50.8653C188.903 51.1017 188.864 51.2457 188.797 51.3286C188.719 51.4156 188.549 51.5134 188.28 51.6261C188.014 51.7498 187.851 51.8061 187.771 51.8061C187.542 51.8061 187.352 51.6261 187.187 51.2661ZM177.146 53.5187C177.379 53.5187 177.715 53.3291 178.149 52.9433C178.659 52.4746 179.176 51.8632 179.684 51.1017C180.474 49.9238 180.866 49.1474 180.866 48.7357C180.866 48.6637 180.817 48.6128 180.698 48.6128C180.521 48.6128 180.208 48.8132 179.767 49.2038C179.232 49.6406 178.69 50.2329 178.14 50.9373C177.375 51.9305 176.989 52.7062 176.989 53.2775C176.989 53.4473 177.038 53.5187 177.146 53.5187ZM179.536 52.6091C178.807 53.5709 178.059 54.2285 177.285 54.5376C176.318 54.9329 175.691 55.134 175.398 55.134C175.154 55.134 174.957 55.0002 174.805 54.7332C174.644 54.4547 174.572 54.1674 174.572 53.8175C174.572 53.4215 174.841 52.7171 175.398 51.7498C176.056 50.5671 177.034 49.5129 178.332 48.5965C179.349 47.8615 180.176 47.4865 180.839 47.4865C181.269 47.4865 181.654 47.5993 181.985 47.7997C182.316 48.0109 182.488 48.2215 182.488 48.4783C182.488 48.3703 182.311 49.1678 181.966 50.8551C181.555 52.8502 181.353 53.9975 181.353 54.2958C181.353 54.4241 181.378 54.5376 181.437 54.6972C181.483 54.8358 181.517 54.9329 181.517 55.0002C181.517 55.0932 181.458 55.2162 181.34 55.3453C181.228 55.4838 181.08 55.5511 180.899 55.5511C180.839 55.5511 180.745 55.5253 180.633 55.4838C180.521 55.4533 180.436 55.4166 180.367 55.4166C180.324 55.4166 180.27 55.4166 180.203 55.4533C180.136 55.4736 180.078 55.4736 180.051 55.4736C179.652 55.4736 179.456 54.8765 179.456 53.6939C179.456 53.4215 179.476 53.0404 179.536 52.6091ZM170.969 53.7714C171.353 53.7714 171.714 53.4983 172.029 52.9433C172.343 52.3618 172.499 51.6934 172.499 50.8755C172.499 50.5359 172.424 50.2329 172.28 49.9707C172.123 49.7078 171.94 49.5794 171.714 49.5794C171.349 49.5794 171.031 49.8464 170.767 50.3919C170.499 50.9475 170.364 51.6574 170.364 52.5316C170.364 53.3597 170.561 53.7714 170.969 53.7714ZM171.385 48.2371C171.714 47.9906 172.099 47.8357 172.522 47.8357C172.99 47.8357 173.372 48.0157 173.659 48.3961C173.946 48.7616 174.084 49.286 174.084 49.9598C174.084 51.7342 173.372 53.1437 171.949 54.1314C171.546 54.579 171.127 54.9329 170.702 55.2162C170.347 55.4166 170.076 55.5253 169.885 55.5253C169.588 55.5253 169.281 55.3296 168.968 54.9234C168.605 54.4398 168.413 53.8535 168.413 53.1641C168.413 51.8992 168.726 50.3919 169.333 48.6379C170.436 45.4908 171.271 43.4536 171.848 42.5229C172.014 42.2655 172.24 42.0909 172.486 42.0135C173.093 41.828 173.359 41.7567 173.283 41.7567C173.397 41.7567 173.507 41.828 173.63 41.9829C173.744 42.1575 173.803 42.3171 173.803 42.5175C173.803 42.5229 173.547 43.0372 173.05 44.0609C172.424 45.3569 171.871 46.7454 171.385 48.2371ZM165.136 47.5633C165.044 47.5633 164.964 47.5218 164.881 47.3833C164.801 47.2644 164.773 47.1163 164.773 46.9356C164.773 46.8534 164.924 46.5246 165.238 45.9792C165.336 45.825 165.544 45.6599 165.866 45.5009C166.193 45.3569 166.47 45.2897 166.714 45.2897C167.045 45.2897 167.204 45.4799 167.204 45.8352C167.204 46.0559 167.11 46.3901 166.931 46.8534C166.855 47.0538 166.638 47.2134 166.285 47.3575C165.929 47.5069 165.544 47.5633 165.136 47.5633ZM164.062 55.458C163.762 55.458 163.494 55.3194 163.274 55.0464C163.06 54.774 162.948 54.4092 162.948 53.931C162.948 53.6171 163.118 52.9535 163.449 51.9868C163.78 51.0039 164.176 49.9598 164.633 48.8132C164.724 48.7045 164.863 48.6073 165.038 48.5306C165.222 48.4484 165.405 48.3703 165.582 48.2935C165.633 48.2677 165.767 48.1957 165.965 48.0524C166.099 47.9539 166.215 47.9179 166.305 47.9179C166.546 47.9179 166.663 48.0931 166.663 48.4837C166.663 48.6637 166.582 48.9307 166.421 49.2968C166.103 49.9754 165.929 50.3871 165.884 50.4999C165.434 51.6261 165.213 52.444 165.213 52.9637C165.213 53.3801 165.365 53.5709 165.651 53.5709C165.777 53.5709 165.96 53.4881 166.222 53.2775C166.488 53.092 166.663 52.984 166.752 52.984C166.971 52.984 167.084 53.1022 167.084 53.3706C167.084 53.5186 166.94 53.7713 166.656 54.1157C166.322 54.5118 165.96 54.738 165.582 54.867C165.311 54.9329 164.993 55.0674 164.655 55.2576C164.402 55.4016 164.197 55.458 164.062 55.458ZM158.013 50.8341H157.868C157.558 50.8341 157.4 50.7315 157.4 50.5359C157.4 50.3301 157.818 49.8518 158.669 49.1678C159.581 47.0538 160.137 45.9486 160.338 45.8664C160.433 45.8501 160.58 45.825 160.783 45.7476C161.231 45.5213 161.464 45.4235 161.5 45.4235C161.708 45.4235 161.853 45.5526 161.932 45.8352C161.972 45.9738 161.976 46.0872 161.976 46.185C161.976 46.293 161.86 46.5756 161.614 47.064C161.272 47.7426 160.974 48.4117 160.732 49.0496C161.05 49.1114 161.35 49.1474 161.649 49.1678C161.838 49.214 161.932 49.3118 161.932 49.4558C161.932 49.61 161.883 49.7595 161.784 49.9238C161.685 50.0679 161.585 50.2329 161.488 50.3559C161.363 50.5773 161.272 50.7057 161.213 50.7628C161.162 50.7933 161.034 50.8341 160.831 50.8341H160.533H160.029C159.64 51.6418 159.434 52.3265 159.434 52.8299C159.434 53.3903 159.671 53.6579 160.137 53.6579C160.356 53.6579 160.62 53.6172 160.929 53.4779C161.231 53.3393 161.419 53.2775 161.5 53.2775C161.743 53.2775 161.866 53.4215 161.866 53.6939C161.866 53.931 161.585 54.2496 161.034 54.6972C160.365 55.2013 159.642 55.458 158.881 55.458C158.418 55.458 158.024 55.2162 157.697 54.7536C157.418 54.342 157.272 53.8943 157.272 53.3801C157.272 53.1845 157.339 52.8502 157.503 52.3829C157.782 51.5854 157.954 51.0766 158.013 50.8341ZM152.675 52.7429C153.288 52.2851 153.767 51.7342 154.138 51.0766C154.452 50.4693 154.618 49.9238 154.618 49.4402C154.618 49.1474 154.53 48.998 154.372 48.998C154.009 48.998 153.655 49.3322 153.292 50.0013C152.912 50.7424 152.706 51.673 152.675 52.7429ZM152.901 53.5968C153.17 54.1158 153.58 54.3983 154.119 54.3983C154.426 54.3983 154.741 54.27 155.066 54.0696C155.388 53.8379 155.571 53.7299 155.616 53.7299C155.835 53.7299 155.948 53.8536 155.948 54.0696C155.948 54.3725 155.657 54.6972 155.091 55.0369C154.506 55.386 154.009 55.5511 153.588 55.5511C153.392 55.5511 153.061 55.5151 152.586 55.4166C152.105 55.3195 151.729 55.2678 151.467 55.2678C151.145 55.2678 150.88 55.0824 150.67 54.7122C150.455 54.342 150.352 53.8379 150.352 53.2157C150.352 52.7579 150.478 52.1866 150.732 51.4978C151.019 50.7315 151.384 50.0679 151.815 49.502C152.313 48.8444 152.884 48.3248 153.517 47.8615C154.061 47.5069 154.491 47.3167 154.799 47.3167C155.446 47.3167 155.766 47.8099 155.766 48.8132C155.766 49.091 155.706 49.4402 155.553 49.8417C155.517 50.0679 155.446 50.4286 155.33 50.8755C154.919 52.0996 154.117 53.0099 152.901 53.5968ZM143.029 50.4897C142.349 50.7315 141.758 51.1384 141.25 51.673C140.809 52.1512 140.532 52.6193 140.42 53.1023C140.35 53.3801 140.392 53.5553 140.567 53.6172C140.903 53.7143 141.328 53.4983 141.818 52.9433C142.358 52.3306 142.763 51.529 143.029 50.4897ZM143.016 49.5896C142.877 49.0088 142.55 48.6277 142.015 48.4783C141.717 48.3703 141.386 48.3866 141.028 48.4994C140.666 48.6128 140.473 48.6637 140.42 48.6637C140.207 48.5965 140.124 48.4375 140.178 48.2168C140.247 47.9287 140.594 47.7175 141.23 47.5477C141.865 47.3989 142.389 47.3731 142.797 47.5069C142.98 47.5477 143.289 47.6971 143.727 47.9287C144.166 48.1597 144.52 48.3248 144.77 48.4117C145.084 48.4994 145.294 48.7616 145.422 49.1678C145.549 49.61 145.531 50.1195 145.393 50.7213C145.289 51.1588 145.032 51.6778 144.636 52.2647C144.188 52.9073 143.689 53.4473 143.137 53.8739C142.509 54.342 141.838 54.7122 141.129 54.9329C140.515 55.134 140.065 55.1856 139.762 55.0933C139.139 54.9031 138.945 54.3318 139.175 53.3706C139.233 53.1022 139.379 52.768 139.607 52.4291C139.692 52.2131 139.838 51.8992 140.048 51.4821C140.724 50.4381 141.717 49.79 143.016 49.5896ZM138.504 43.8034C138.7 43.8034 138.804 43.9426 138.804 44.2409C138.804 44.4773 138.455 45.4908 137.768 47.244C136.514 50.4435 135.881 52.3618 135.881 52.984C135.881 53.3903 136.05 53.5968 136.382 53.5968C136.771 53.5968 137.179 53.4113 137.595 53.0404C138.021 52.6498 138.258 52.4746 138.316 52.4746C138.513 52.4746 138.615 52.6193 138.615 52.9073C138.615 53.2775 138.264 53.7611 137.568 54.3725C137.091 54.7998 136.583 55.134 136.05 55.4125C135.648 55.6122 135.397 55.7304 135.281 55.7304C135.171 55.7304 135.043 55.6686 134.923 55.5253C134.726 55.3602 134.605 55.2726 134.565 55.2576C134.184 55.0572 133.982 54.9329 133.952 54.9234C133.775 54.7998 133.683 54.6456 133.683 54.4547C133.683 54.4241 133.694 54.3318 133.723 54.1776C133.752 53.9975 133.77 53.8739 133.77 53.7713C133.77 53.7455 133.759 53.7143 133.746 53.6579V53.5709C133.746 53.1844 134.083 52.0276 134.753 50.1609C135.107 49.1678 135.462 48.2011 135.814 47.2236C136.082 46.4418 136.225 45.897 136.225 45.6599C136.225 45.5526 136.203 45.4337 136.194 45.3053C136.19 45.1769 136.176 45.0995 136.176 45.0635C136.176 44.9399 136.225 44.8678 136.284 44.8271C136.348 44.7653 136.881 44.5289 137.873 44.0608C138.242 43.8856 138.455 43.8034 138.504 43.8034ZM127.251 50.4999C126.515 51.4054 125.845 52.3 125.25 53.1695C124.959 53.5805 124.677 53.9976 124.399 54.4242C124.359 54.4656 124.135 54.6096 123.746 54.8508C123.101 55.2162 122.739 55.4125 122.649 55.4125C122.271 55.4125 122.085 55.0674 122.085 54.4092C122.085 54.2081 122.256 53.7143 122.598 52.8869C123.07 51.7865 123.448 50.7831 123.71 49.9035C123.97 49.0496 124.153 48.5557 124.245 48.3961C124.496 47.9179 124.856 47.6767 125.335 47.6767C125.462 47.6767 125.608 47.7895 125.738 47.9906C125.874 48.2012 125.948 48.4117 125.948 48.6128C125.948 48.7358 125.828 49.1216 125.579 49.7798C125.216 50.7777 124.914 51.6261 124.681 52.3516C125.572 51.2457 126.463 50.1195 127.349 49.0088C128.003 48.2012 128.437 47.7997 128.648 47.7997C128.844 47.7997 129.012 47.9029 129.122 48.0775C129.24 48.2881 129.299 48.5306 129.299 48.7718C129.299 48.9212 129.202 49.3064 129.019 49.9598C128.636 51.1894 128.396 52.0276 128.28 52.4291C128.437 52.1614 128.746 51.7702 129.212 51.2457C129.784 50.5929 130.205 50.0678 130.483 49.6929C131.261 48.6277 131.825 48.0931 132.159 48.0931C132.421 48.0931 132.573 48.2575 132.598 48.5965C132.662 48.7772 132.698 48.998 132.698 49.1678C132.698 49.6874 132.573 50.3919 132.309 51.3177C132.059 52.2334 131.933 52.8706 131.933 53.1695C131.933 53.3393 131.975 53.5187 132.067 53.7095C132.152 53.8997 132.204 54.0281 132.204 54.1314C132.204 54.342 132.109 54.4805 131.924 54.5682C131.74 54.6354 131.568 54.7122 131.391 54.774C131.219 54.8358 131.008 54.99 130.765 55.2576C130.558 55.458 130.375 55.5511 130.183 55.5511C130.004 55.5511 129.818 55.4737 129.632 55.3038C129.444 55.134 129.355 54.9696 129.355 54.7998C129.355 54.7122 129.449 54.3216 129.666 53.6172C129.932 52.6913 130.165 51.796 130.361 50.9373C129.851 51.6166 129.321 52.3306 128.795 53.1023C128.372 53.7299 128.133 54.1001 128.066 54.1674C127.835 54.4092 127.56 54.6354 127.242 54.8154C126.924 55.0111 126.725 55.1238 126.633 55.1238C126.51 55.1238 126.364 55.0111 126.19 54.8052C126.022 54.6354 125.93 54.4398 125.93 54.2496C125.93 54.1158 126.055 53.7143 126.302 53.0513C126.611 52.2029 126.924 51.3483 127.251 50.4999ZM119.633 47.5633C119.543 47.5633 119.463 47.5218 119.38 47.3833C119.299 47.2644 119.263 47.1163 119.263 46.9356C119.263 46.8534 119.424 46.5246 119.733 45.9792C119.834 45.825 120.044 45.6599 120.367 45.5009C120.689 45.3569 120.971 45.2897 121.213 45.2897C121.535 45.2897 121.701 45.4799 121.701 45.8352C121.701 46.0559 121.611 46.3901 121.437 46.8534C121.356 47.0538 121.137 47.2134 120.783 47.3575C120.433 47.5069 120.044 47.5633 119.633 47.5633ZM118.567 55.458C118.258 55.458 117.99 55.3194 117.773 55.0464C117.56 54.774 117.448 54.4092 117.448 53.931C117.448 53.6171 117.619 52.9535 117.949 51.9868C118.285 51.0039 118.674 49.9598 119.131 48.8132C119.221 48.7045 119.355 48.6073 119.543 48.5306C119.722 48.4484 119.904 48.3703 120.08 48.2935C120.136 48.2677 120.264 48.1957 120.469 48.0524C120.599 47.9539 120.711 47.9179 120.792 47.9179C121.038 47.9179 121.163 48.0931 121.163 48.4837C121.163 48.6637 121.083 48.9307 120.913 49.2968C120.608 49.9754 120.433 50.3871 120.38 50.4999C119.94 51.6261 119.718 52.444 119.718 52.9637C119.718 53.3801 119.866 53.5709 120.147 53.5709C120.27 53.5709 120.46 53.4881 120.721 53.2775C120.987 53.092 121.163 52.984 121.253 52.984C121.468 52.984 121.584 53.1022 121.584 53.3706C121.584 53.5186 121.436 53.7713 121.15 54.1157C120.819 54.5118 120.456 54.738 120.08 54.867C119.81 54.9329 119.496 55.0674 119.153 55.2576C118.894 55.4016 118.699 55.458 118.567 55.458ZM113.047 52.4291C113.71 51.6778 114.028 51.0766 114.028 50.5929C114.028 50.0835 113.757 49.8416 113.214 49.8416C112.94 49.8416 112.627 49.9238 112.26 50.0835C111.884 50.2533 111.646 50.4027 111.527 50.5671C111.432 50.7424 111.337 50.9475 111.226 51.1534C111.109 51.3999 110.961 51.5134 110.779 51.5134C110.668 51.5134 110.568 51.4672 110.48 51.3286C110.395 51.2097 110.343 51.0766 110.343 50.9115C110.343 50.5929 110.568 50.2533 111.012 49.8933C111.617 49.3838 112.323 48.9307 113.133 48.5612C113.809 48.2575 114.275 48.0931 114.534 48.0931C114.943 48.0931 115.322 48.2168 115.684 48.4219C116.092 48.6896 116.302 48.998 116.302 49.3478C116.302 50.1765 115.452 51.3483 113.764 52.9433C114.129 53.3706 114.458 53.571 114.735 53.571C114.955 53.571 115.188 53.4528 115.427 53.2157C115.676 52.9786 115.837 52.8502 115.915 52.8502C115.982 52.8502 116.056 52.8869 116.119 52.9637C116.179 53.0404 116.213 53.1437 116.213 53.2157C116.213 53.3597 116.125 53.5553 115.937 53.7714C115.76 53.9976 115.57 54.2448 115.384 54.4547C115.228 54.7332 115.071 55.0002 114.915 55.2678C114.686 55.6122 114.415 55.7875 114.096 55.7875C113.907 55.7875 113.67 55.5864 113.41 55.2162C113.102 54.738 112.73 54.3983 112.314 54.1776C111.447 54.9289 110.84 55.3038 110.494 55.3038C110.157 55.3038 109.98 55.134 109.98 54.774C109.98 54.3983 110.214 53.8943 110.67 53.2619C111.131 52.6498 111.692 52.3306 112.363 52.3306C112.547 52.3306 112.775 52.3618 113.047 52.4291ZM107.163 47.5633C107.082 47.5633 106.998 47.5218 106.916 47.3833C106.832 47.2644 106.794 47.1163 106.794 46.9356C106.794 46.8534 106.953 46.5246 107.265 45.9792C107.363 45.825 107.571 45.6599 107.9 45.5009C108.219 45.3569 108.505 45.2897 108.753 45.2897C109.068 45.2897 109.234 45.4799 109.234 45.8352C109.234 46.0559 109.142 46.3901 108.973 46.8534C108.887 47.0538 108.675 47.2134 108.309 47.3575C107.96 47.5069 107.571 47.5633 107.163 47.5633ZM106.104 55.458C105.787 55.458 105.523 55.3194 105.309 55.0464C105.088 54.774 104.979 54.4092 104.979 53.931C104.979 53.6171 105.147 52.9535 105.481 51.9868C105.817 51.0039 106.21 49.9598 106.669 48.8132C106.755 48.7045 106.886 48.6073 107.069 48.5306C107.259 48.4484 107.439 48.3703 107.615 48.2935C107.674 48.2677 107.796 48.1957 107.998 48.0524C108.134 47.9539 108.244 47.9179 108.332 47.9179C108.578 47.9179 108.704 48.0931 108.704 48.4837C108.704 48.6637 108.616 48.9307 108.45 49.2968C108.134 49.9754 107.96 50.3871 107.917 50.4999C107.472 51.6261 107.247 52.444 107.247 52.9637C107.247 53.3801 107.39 53.5709 107.677 53.5709C107.803 53.5709 107.998 53.4881 108.263 53.2775C108.519 53.092 108.694 52.984 108.781 52.984C109.002 52.984 109.124 53.1022 109.124 53.3706C109.124 53.5186 108.975 53.7713 108.678 54.1157C108.347 54.5118 107.985 54.738 107.615 54.867C107.332 54.9329 107.031 55.0674 106.684 55.2576C106.424 55.4016 106.224 55.458 106.104 55.458ZM100.679 47.9906C102.816 46.3392 103.882 45.0227 103.882 43.9889C103.882 43.2423 103.548 42.6357 102.9 42.1677C102.214 41.6541 101.279 41.4272 100.098 41.4272C97.6561 41.4272 95.0519 42.2655 92.2982 43.9427C91.4659 44.4718 91.0514 44.7857 91.0514 44.9399C91.0514 45.0689 91.1129 45.2075 91.2595 45.3053C91.3937 45.4235 91.5539 45.4908 91.7307 45.4908C91.8797 45.4908 92.0003 45.4235 92.0801 45.2897C92.2391 45.0893 92.3207 44.9759 92.3207 44.9759C92.5915 44.7605 93.3151 44.4773 94.4791 44.1893C95.9564 43.7932 97.3179 43.582 98.5535 43.582C99.5975 43.582 100.429 43.6954 101.017 43.9427C101.574 44.1893 101.845 44.4875 101.845 44.8787C101.845 45.6708 101.076 46.6218 99.5496 47.7739C99.387 47.8873 99.2339 48.011 99.0684 48.1292C98.9141 48.2372 98.8035 48.3703 98.745 48.5347C98.6209 48.6896 98.5647 48.8281 98.5647 48.947C98.5647 49.2296 98.755 49.3736 99.131 49.3736C99.2404 49.3736 99.4178 49.3736 99.6601 49.358C99.9108 49.358 100.098 49.3478 100.235 49.3478C101.54 49.3478 102.197 49.8933 102.197 50.9475C102.197 51.6934 101.885 52.3414 101.268 52.8706C100.64 53.3801 99.8706 53.6477 98.9655 53.6477C98.2738 53.6477 97.7252 53.4983 97.3179 53.2157C96.9053 52.9379 96.6948 52.5527 96.6948 52.0996C96.6948 51.8632 96.9029 51.3483 97.2925 50.5929C98.1408 49.0442 98.6457 48.0931 98.7952 47.7997C99.5833 46.2203 99.977 45.1511 99.977 44.5798C99.977 44.2307 99.8263 44.0507 99.5283 44.0507C99.3551 44.0507 99.0861 44.2042 98.7148 44.5438C98.3554 44.8787 98.0669 45.1151 97.8842 45.2537C97.7335 45.4337 97.325 46.3392 96.6629 47.9539C95.3185 51.2206 94.6446 53.0255 94.6446 53.3597C94.6446 53.7612 94.8651 54.1158 95.3061 54.45C95.7483 54.7536 96.3135 54.9234 97.0194 54.9234C97.9469 54.9234 98.8957 54.7536 99.8659 54.45C100.829 54.1158 101.66 53.7143 102.367 53.1845C103.001 52.7171 103.504 52.2029 103.865 51.6262C104.199 51.1221 104.368 50.6548 104.368 50.2329C104.368 49.5489 104.089 48.998 103.548 48.5965C103.009 48.1699 102.25 47.9906 101.297 47.9906H100.679ZM91.9706 55.7515C91.8671 55.7515 91.7454 55.6686 91.6029 55.458C91.4657 55.2576 91.3936 55.0573 91.3936 54.867V54.5376C91.3936 54.2448 91.6248 53.8739 92.0622 53.4528C92.4512 53.1022 92.7244 52.9433 92.8822 52.9433C93.0365 52.9433 93.1878 53.0404 93.3321 53.2775C93.5142 53.571 93.6188 53.9976 93.6188 54.5376C93.6188 54.7332 93.4308 54.9798 93.0625 55.2835C92.6617 55.602 92.2981 55.7515 91.9706 55.7515ZM88.0266 55.7515C87.9279 55.7515 87.8102 55.6686 87.6736 55.458C87.5353 55.2576 87.4644 55.0573 87.4644 54.867V54.5376C87.4644 54.2448 87.6849 53.8739 88.1306 53.4528C88.5167 53.1022 88.7886 52.9433 88.9541 52.9433C89.1043 52.9433 89.2527 53.0404 89.3993 53.2775C89.5873 53.571 89.6783 53.9976 89.6783 54.5376C89.6783 54.7332 89.4957 54.9798 89.1232 55.2835C88.7295 55.602 88.3653 55.7515 88.0266 55.7515ZM84.0967 55.7515C83.9974 55.7515 83.8798 55.6686 83.7361 55.458C83.6007 55.2576 83.5339 55.0573 83.5339 54.867V54.5376C83.5339 54.2448 83.7556 53.8739 84.1907 53.4528C84.5856 53.1022 84.8576 52.9433 85.0119 52.9433C85.1744 52.9433 85.3287 53.0404 85.4606 53.2775C85.6521 53.571 85.7473 53.9976 85.7473 54.5376C85.7473 54.7332 85.567 54.9798 85.1957 55.2835C84.7985 55.602 84.4278 55.7515 84.0967 55.7515Z" fill="white"/>
</g>
<defs>
<filter id="filter0_d" x="0" y="0" width="224" height="63.7875" filterUnits="userSpaceOnUse" color-interpolation-filters="sRGB">
<feFlood flood-opacity="0" result="BackgroundImageFix"/>
<feColorMatrix in="SourceAlpha" type="matrix" values="0 0 0 0 0 0 0 0 0 0 0 0 0 0 0 0 0 0 127 0"/>
<feOffset dy="4"/>
<feGaussianBlur stdDeviation="2"/>
<feColorMatrix type="matrix" values="0 0 0 0 0 0 0 0 0 0 0 0 0 0 0 0 0 0 0.25 0"/>
<feBlend mode="normal" in2="BackgroundImageFix" result="effect1_dropShadow"/>
<feBlend mode="normal" in="SourceGraphic" in2="effect1_dropShadow" result="shape"/>
</filter>
</defs>
</svg>
